<svg width="47" height="97" viewBox="0 0 47 97" fill="none" xmlns="http://www.w3.org/2000/svg">
<path d="M23.866 41.7764C23.922 42.037 23.9719 42.3018 24.0135 42.5704L24.0659 42.9407C24.9835 50.1623 23.6512 56.6385 19.3044 61.7888L18.8737 62.2834C18.7037 62.4732 18.5535 62.6548 18.419 62.8159C18.287 62.9741 18.1698 63.1099 18.0535 63.2329L14.284 66.5381C13.573 67.0452 12.9465 67.4789 12.2186 67.9187L12.2185 67.9196C10.9237 68.7059 9.33252 69.5491 7.81857 70.1202C0.942525 72.7169 -6.78069 73.3318 -14.1355 70.5542L-14.1345 70.5544C-17.5157 69.2722 -20.4744 67.4184 -22.8373 65.1406C-24.9682 63.0823 -26.0497 61.3919 -26.7302 60.02C-27.0733 59.3283 -27.3159 58.714 -27.5474 58.1484C-27.7592 57.6306 -27.9684 57.139 -28.2337 56.6996C-28.2853 56.2902 -28.3924 55.8434 -28.5015 55.4153C-28.6252 54.9297 -28.7507 54.46 -28.829 54.016L-28.8289 54.0151C-28.8979 53.6272 -28.9502 53.2294 -28.9923 52.8234C-28.1888 55.2373 -26.933 57.3014 -25.6016 58.8624C-22.0353 63.0474 -16.0212 66.5517 -9.57515 67.4601C-2.35848 68.477 3.99851 67.7076 10.2696 64.8412C14.9494 62.7037 18.622 57.606 21.2286 52.2699L21.7353 51.2002C23.415 47.5519 24.0222 44.4528 23.866 41.7764Z" fill="#DCA83B" stroke="#530D11"/>
<path d="M22.5569 37.3541C25.1944 41.3186 25.156 45.978 22.9614 50.67C20.7609 55.3743 16.4004 60.081 10.4688 64.0273C4.62252 67.9168 -3.58471 68.9466 -11.0568 67.3297C-18.5303 65.7125 -25.1529 61.4753 -27.934 54.9643C-32.463 44.3609 -25.6589 32.2646 -14.6639 28.0067C2.65611 21.2996 16.8788 28.8195 22.5569 37.3541Z" fill="#F1BD46" stroke="#530D11"/>
<path d="M0.717309 54.2642L-17.3731 57.1737L-9.53175 39.938L-1.94038 46.1325L0.717309 54.2642ZM4.04655 52.7101L1.11267 44.319L-6.56559 38.1442C-5.05026 37.5367 6.53281 36.6528 12.1354 36.2869L4.04655 52.7101Z" fill="#530D11"/>
<path d="M8.7476 26.7701C12.025 27.8022 15.0588 29.3915 17.6177 31.5627L-22.1008 61.5302C-23.2767 60.5995 -24.3287 59.5949 -25.2214 58.5473C-26.2188 57.3779 -27.1713 55.9202 -27.9138 54.2419L8.7476 26.7701ZM-0.881204 25.3189C-7.98837 30.6449 -19.7884 39.4481 -29.3576 46.5792C-29.2426 44.3865 -28.6759 42.0546 -27.4741 39.654C-22.7848 30.2888 -11.7025 25.2863 -0.881204 25.3189Z" fill="#FFD77C"/>
<path d="M-0.323878 52.4025L-18.4139 55.3129L-10.5726 38.0771L-2.98156 44.2707L-0.323878 52.4025ZM3.00663 50.8488L0.0714779 42.4572L-7.60641 36.2834C-6.09145 35.6758 5.49187 34.792 11.0946 34.426L3.00663 50.8488Z" fill="#FFE6AE"/>
<path d="M-4.03495 43.427L-17.6911 53.7303L-10.5752 38.0903L-4.03495 43.427ZM-1.30301 41.3657L-7.60809 36.2946C-6.36732 35.7972 1.62093 35.116 7.55109 34.684L-1.30301 41.3657Z" fill="#FFFCF6"/>
</svg>
