<svg width="49" height="49" viewBox="0 0 49 49" fill="none" xmlns="http://www.w3.org/2000/svg">
<path d="M22.8646 11.1834C25.8189 11.0106 28.4839 11.7189 30.708 13.541L30.7089 13.5421C30.8129 13.6272 30.9123 13.7023 30.9956 13.7657C31.0761 13.827 31.1402 13.8775 31.197 13.9262L32.9367 15.7396C33.2058 16.0835 33.4336 16.3832 33.6659 16.7315L33.6668 16.7326C34.0895 17.3633 34.5445 18.1369 34.8602 18.8724C36.3133 22.2547 36.7878 26.0922 35.5694 29.8138L35.5695 29.8128C35.0061 31.5256 34.1504 33.0366 33.0736 34.2586C32.0977 35.3638 31.2878 35.9328 30.6324 36.2953C30.2993 36.4795 30.0024 36.6122 29.7184 36.7436C29.595 36.8006 29.4706 36.8603 29.3481 36.923C29.7005 36.6734 30.022 36.4118 30.3073 36.1455C32.3912 34.2024 34.058 31.0198 34.378 27.6731C34.7337 23.9519 34.1936 20.6999 32.5752 17.5406C31.2643 14.9798 28.2424 13.1312 25.2767 11.9241C24.4162 11.5736 23.614 11.3318 22.8646 11.1834Z" fill="#DCA83B" stroke="#530D11"/>
<path d="M18.2937 12.2478C20.1576 10.8838 22.4244 10.789 24.7921 11.7701C27.1723 12.7563 29.6235 14.8234 31.7396 17.715C33.7952 20.524 34.4979 24.5886 33.8564 28.3615C33.2146 32.1358 31.2505 35.5022 28.1094 37.0131C22.996 39.4729 16.847 36.404 14.4812 31.0223C10.7382 22.5074 14.1876 15.2527 18.2937 12.2478Z" fill="#F1BD46" stroke="#530D11"/>
<path d="M27.2125 22.7318L29.0964 31.8333L20.1855 28.2504L23.1519 24.2631L27.2125 22.7318ZM26.3494 21.0814L22.1638 22.7587L19.2087 26.7892C18.8665 26.0355 18.1559 20.1859 17.8434 17.3551L26.3494 21.0814Z" fill="#530D11"/>
<path d="M13.0977 19.2855C13.5464 17.6015 14.2837 16.0288 15.3258 14.6829L31.4107 34.1287C30.9657 34.7459 30.4808 35.3026 29.9701 35.7789C29.4004 36.3105 28.6835 36.8255 27.8504 37.2397L13.0977 19.2855ZM12.5795 24.1963C15.4395 27.6769 20.1679 33.4584 23.9988 38.1462C22.8853 38.1375 21.691 37.9027 20.4475 37.3482C15.5952 35.1841 12.8077 29.681 12.5795 24.1963Z" fill="#FFD77C"/>
<path d="M26.2924 23.301L28.1771 32.4021L19.2653 28.8196L22.2322 24.8331L26.2924 23.301ZM25.431 21.6497L21.2446 23.3275L18.2904 27.3576C17.9482 26.6042 17.2375 20.7544 16.9251 17.9234L25.431 21.6497Z" fill="#FFE6AE"/>
<path d="M21.8289 25.3856L27.3585 32.0717L19.2735 28.8196L21.8289 25.3856ZM20.7222 24.0474L18.2956 27.3578C18.0155 26.7407 17.4913 22.7098 17.1379 19.7148L20.7222 24.0474Z" fill="#FFFCF6"/>
</svg>
