<svg width="68" height="68" viewBox="0 0 68 68" fill="none" xmlns="http://www.w3.org/2000/svg">
<path d="M37.3808 15.7167C41.9741 16.9464 45.5812 19.3897 47.7261 23.3609C47.812 23.5198 47.8978 23.6639 47.9712 23.7889C48.043 23.9111 48.101 24.0151 48.1513 24.114L49.4231 27.3392C49.5875 27.9199 49.724 28.4255 49.84 28.9972L49.8404 28.9985C50.0508 30.0244 50.2286 31.2522 50.2482 32.3632C50.337 37.2801 49.0334 42.2679 45.7687 46.3147L45.4467 46.7034C43.8327 48.5943 41.9477 50.0755 39.9283 51.0709C38.1024 51.9687 36.7628 52.2704 35.7249 52.3888C35.1995 52.4488 34.7477 52.4632 34.3223 52.4808C33.9483 52.4963 33.5799 52.5178 33.2278 52.5845C32.9441 52.5227 32.6292 52.4866 32.3348 52.4577C32.2203 52.4465 32.1081 52.4354 31.9983 52.4244C33.2143 52.3131 34.3386 52.0367 35.3015 51.6742C38.9027 50.3202 42.6247 47.1944 44.7396 43.165C47.0999 38.6681 48.0888 34.3047 47.6765 29.4986L47.6752 29.499C47.3456 25.6418 44.5184 21.7619 41.3942 18.6901C40.0096 17.328 38.6725 16.3624 37.3808 15.7167Z" fill="#DCA83B" stroke="#530D11"/>
<path d="M32.471 15.1387C35.6118 14.3684 38.5941 15.4664 41.1193 17.9806C43.654 20.5042 45.7006 24.4365 46.8904 29.2253C48.0555 33.9151 46.8273 39.4782 44.0442 43.9503C41.2603 48.4235 36.986 51.7061 32.15 51.9807C24.2753 52.4278 18.0117 45.218 17.7969 37.0915C17.4581 24.2664 25.6389 16.8145 32.471 15.1387Z" fill="#F1BD46" stroke="#530D11"/>
<path d="M38.3848 33.2525L36.0654 45.757L26.6345 36.5631L32.4521 33.0673L38.3848 33.2525ZM38.1441 30.7116L31.9775 30.6466L26.1519 34.2033C26.1082 33.0709 28.2341 25.295 29.3022 21.5486L38.1441 30.7116Z" fill="#530D11"/>
<path d="M22.302 21.4992C23.7415 19.6044 25.4887 18.0015 27.5039 16.845L37.8144 49.8675C36.929 50.4185 36.0246 50.8712 35.1287 51.2081C34.1351 51.5821 32.9647 51.859 31.6996 51.9485L22.302 21.4992ZM19.1027 27.4465C20.9241 33.3473 23.9231 43.1446 26.3508 51.0852C24.9431 50.4921 23.5498 49.5701 22.26 48.2159C17.2329 42.9374 16.5517 34.5098 19.1027 27.4465Z" fill="#FFD77C"/>
<path d="M36.9241 33.4895L34.6047 45.995L25.1738 36.8001L30.9915 33.3053L36.9241 33.4895ZM36.6873 30.9484L30.5207 30.8824L24.695 34.4392C24.6514 33.3066 26.7772 25.5308 27.8454 21.7844L36.6873 30.9484Z" fill="#FFE6AE"/>
<path d="M30.1803 33.8066L33.7122 45.1191L25.1866 36.8069L30.1803 33.8066ZM29.4706 31.5335L24.7017 34.446C24.6661 33.521 26.0782 28.1643 27.1787 24.1911L29.4706 31.5335Z" fill="#FFFCF6"/>
</svg>
