<svg width="25" height="25" viewBox="0 0 25 25" fill="none" xmlns="http://www.w3.org/2000/svg">
<path d="M19.3285 10.6143C19.4862 11.6209 19.3971 12.616 19.0203 13.5917L19.0205 13.5927C18.9913 13.6686 18.9674 13.7401 18.9483 13.7953C18.9309 13.8455 18.9162 13.8815 18.9037 13.9125L18.2419 15.1597C18.1064 15.3624 17.9892 15.5327 17.8483 15.7124L17.8476 15.7136C17.6512 15.9653 17.4172 16.2385 17.1735 16.482L16.9266 16.7141C15.381 18.0799 13.4314 18.9967 11.2562 19L11.2572 18.9998C10.3789 18.9999 9.54604 18.855 8.79746 18.5814L8.4828 18.4564C8.24083 18.3525 8.03251 18.2475 7.85058 18.1449C9.1745 18.5988 10.76 18.7319 12.2534 18.3938C14.3717 17.9142 16.0782 17.0228 17.5357 15.5479C18.7118 14.3585 19.1858 12.4055 19.3285 10.6143Z" fill="#DCA83B" stroke="#530D11"/>
<path d="M17.5805 6.87288C18.5791 7.5875 19.0166 8.7202 18.9112 10.1248C18.8048 11.5426 18.141 13.2046 16.965 14.848C15.8485 16.4083 13.8258 17.4934 11.707 17.8125C9.58696 18.1318 7.48788 17.6702 6.17046 16.3015C4.02739 14.0746 4.54503 10.3288 6.97733 8.14272C10.853 4.65976 15.2949 5.23742 17.5805 6.87288Z" fill="#F1BD46" stroke="#530D11"/>
<path d="M13.6092 13.4129L9.0056 16.0614L9.35846 10.5846L12.053 11.4829L13.6092 13.4129ZM14.3509 12.6504L12.6932 10.6776L9.9774 9.79372C10.3256 9.47327 13.3734 8.04254 14.854 7.36735L14.3509 12.6504Z" fill="#530D11"/>
<path d="M12.9572 5.13637C13.9511 5.07917 14.9362 5.1978 15.8525 5.52285L8.17151 17.7267C7.757 17.5954 7.3681 17.4323 7.01838 17.2401C6.62787 17.0257 6.22048 16.728 5.84674 16.3496L12.9572 5.13637ZM10.1951 5.73606C8.8166 7.91012 6.52483 11.5055 4.6659 14.42C4.47217 13.8146 4.38675 13.125 4.46548 12.3519C4.77323 9.33319 7.26087 6.84049 10.1951 5.73606Z" fill="#FFD77C"/>
<path d="M13.1355 13.0145L8.53184 15.6629L8.8847 10.1861L11.5793 11.0844L13.1355 13.0145ZM13.8792 12.2513L12.2208 10.2792L9.50502 9.39529C9.85287 9.07498 12.9009 7.64417 14.3816 6.96891L13.8792 12.2513Z" fill="#FFE6AE"/>
<path d="M11.205 10.9632L8.56656 15.1545L8.88717 10.191L11.205 10.9632ZM11.7335 10.1242L9.50671 9.39961C9.7911 9.13774 11.8806 8.13416 13.4427 7.40749L11.7335 10.1242Z" fill="#FFFCF6"/>
</svg>
