<svg width="19" height="19" viewBox="0 0 19 19" fill="none" xmlns="http://www.w3.org/2000/svg">
<path d="M13.2879 11.7079L13.287 11.7081C13.0933 11.9563 12.8517 12.2311 12.6122 12.4426C11.4709 13.451 10.0372 14.123 8.44238 14.1255L8.44333 14.1253C8.1399 14.1253 7.84407 14.0999 7.55911 14.0541C8.1084 14.0823 8.67098 14.0417 9.21745 13.918C10.8267 13.5537 12.1283 12.8738 13.2401 11.7487C13.2721 11.7163 13.3017 11.6815 13.3324 11.6477C13.3175 11.6673 13.3034 11.6881 13.2879 11.7079Z" fill="#DCA83B" stroke="#530D11"/>
<path d="M13.1125 5.25629C13.8178 5.76105 14.1363 6.56336 14.0597 7.58411C13.9821 8.61822 13.495 9.84325 12.622 11.0633C11.8085 12.2 10.3256 12.9998 8.76202 13.2353C7.19719 13.4711 5.66967 13.1274 4.71872 12.1396C3.17248 10.5331 3.53064 7.80436 5.31659 6.19936C8.17802 3.62798 11.4443 4.06271 13.1125 5.25629Z" fill="#F1BD46" stroke="#530D11"/>
<path d="M10.2072 10.0593L6.75494 12.0462L7.01992 7.9386L9.04019 8.61164L10.2072 10.0593ZM10.7634 9.48743L9.52012 8.00815L7.48291 7.34558C7.74375 7.10537 10.0304 6.03242 11.1409 5.52599L10.7634 9.48743Z" fill="#530D11"/>
<path d="M9.71694 3.852C10.4623 3.80902 11.2009 3.89912 11.8882 4.14281L6.12741 13.2947C5.81691 13.1963 5.52551 13.0739 5.26351 12.93C4.97033 12.769 4.66517 12.5448 4.38464 12.2605L9.71694 3.852ZM7.64565 4.30259C6.61198 5.93311 4.89342 8.62833 3.49967 10.8138C3.35459 10.3599 3.28991 9.84281 3.34895 9.26336C3.57994 6.99973 5.44539 5.13095 7.64565 4.30259Z" fill="#FFD77C"/>
<path d="M9.85213 9.76087L6.39991 11.7477L6.66423 7.63943L8.68516 8.31319L9.85213 9.76087ZM10.4105 9.18836L9.16718 7.70908L7.12998 7.04651C7.39081 6.8063 9.6774 5.73336 10.788 5.22692L10.4105 9.18836Z" fill="#FFE6AE"/>
<path d="M8.4036 8.22291L6.42591 11.3646L6.6662 7.64368L8.4036 8.22291ZM8.80048 7.59147L7.13055 7.04934C7.34378 6.85302 8.9102 6.10191 10.0816 5.55704L8.80048 7.59147Z" fill="#FFFCF6"/>
</svg>
