<svg width="28" height="45" viewBox="0 0 28 45" fill="none" xmlns="http://www.w3.org/2000/svg">
<path d="M34.7339 16.5955C35.7939 19.3821 35.9471 22.1533 34.9412 24.8338L34.8195 25.1448C34.7672 25.2726 34.7231 25.3929 34.6857 25.4942C34.6496 25.5922 34.6191 25.6712 34.588 25.7425L33.3242 28.006C33.0682 28.3726 32.8425 28.686 32.5707 29.0186L32.5699 29.0198C32.0767 29.626 31.4526 30.3071 30.8235 30.8399C28.0233 33.2134 24.5258 34.813 20.6449 34.8408L20.2685 34.8382C18.4124 34.8002 16.6666 34.4135 15.1384 33.7219C13.756 33.0946 12.9514 32.4685 12.3963 31.9321C12.1141 31.6594 11.8931 31.4067 11.6784 31.167C11.5255 30.9964 11.3682 30.8245 11.1986 30.6692C11.5415 30.9491 11.8894 31.1956 12.233 31.4073L12.4625 31.5447C14.9984 33.0067 18.6275 33.6861 22.0118 32.9928C25.7762 32.2217 28.8089 30.7121 31.426 28.1706C33.5454 26.1135 34.4523 22.589 34.7456 19.3095C34.8353 18.3091 34.8264 17.408 34.7339 16.5955Z" fill="#DCA83B" stroke="#530D11"/>
<path d="M32.346 12.5299C34.2539 13.9556 35.0314 16.1616 34.7798 18.7894C34.5268 21.4308 33.2304 24.467 31.0232 27.421C28.8773 30.2927 25.0886 32.2102 21.182 32.7166C17.274 33.2233 13.3661 32.3057 10.9294 29.6677C6.96246 25.3727 8.13046 18.3906 12.7147 14.4383C19.9661 8.18656 28.1483 9.39341 32.346 12.5299Z" fill="#F1BD46" stroke="#530D11"/>
<path d="M24.7157 24.4764L16.3331 29.0726L17.1713 19.229L21.9864 20.9451L24.7157 24.4764ZM26.079 23.1281L23.168 19.5172L18.3127 17.8265C18.9505 17.2629 24.49 14.8009 27.1799 13.6405L26.079 23.1281Z" fill="#530D11"/>
<path d="M23.8526 9.54634C25.6436 9.4807 27.412 9.73251 29.0491 10.3522L14.772 32.0307C14.0297 31.7788 13.3356 31.4695 12.7125 31.1102C12.0186 30.7106 11.2961 30.1621 10.6382 29.4686L23.8526 9.54634ZM18.8665 10.5161C16.3056 14.3773 12.0426 20.7721 8.58564 25.954C8.25796 24.8556 8.12773 23.6096 8.29841 22.2184C8.96462 16.7926 13.5394 12.3926 18.8665 10.5161Z" fill="#FFD77C"/>
<path d="M23.8783 23.7467L15.4956 28.3429L16.3338 18.4993L21.1497 20.2148L23.8783 23.7467ZM25.2423 22.3965L22.3313 18.7855L17.4761 17.0948C18.1139 16.5312 23.6534 14.0692 26.3433 12.9088L25.2423 22.3965Z" fill="#FFE6AE"/>
<path d="M20.4808 19.9764L15.5742 27.4276L16.3343 18.4985L20.4808 19.9764ZM21.4643 18.4831L17.4764 17.0937C17.9999 16.6318 21.8086 14.9 24.6477 13.6499L21.4643 18.4831Z" fill="#FFFCF6"/>
</svg>
