<svg width="19" height="26" viewBox="0 0 19 26" fill="none" xmlns="http://www.w3.org/2000/svg">
<path d="M13.2233 10.9691C13.4129 11.9843 13.3699 12.9897 13.0555 13.9782L12.9311 14.3332C12.9004 14.4129 12.8752 14.4883 12.8549 14.5469C12.8355 14.6032 12.8196 14.6434 12.8054 14.6784L12.1111 15.9897C11.9675 16.2053 11.8432 16.3862 11.6937 16.5777L11.6929 16.5789C11.4859 16.8452 11.2384 17.1342 10.9809 17.3924L10.721 17.639C9.09175 19.0845 7.03648 20.0567 4.74356 20.0625L4.74451 20.0623C3.68698 20.0634 2.69145 19.8634 1.81938 19.4896C1.45132 19.3313 1.15531 19.1723 0.91281 19.0183C2.34795 19.5689 4.12079 19.7478 5.78467 19.3682C8.00747 18.8611 9.79753 17.9205 11.327 16.3669C12.5956 15.0789 13.0884 12.9372 13.2228 11.0022C13.2235 10.9913 13.2226 10.98 13.2233 10.9691Z" fill="#DCA83B" stroke="#530D11"/>
<path d="M11.4167 7.2155C12.4735 7.97431 12.9347 9.17806 12.822 10.667C12.7082 12.1693 12.0058 13.9282 10.7662 15.6659C9.58584 17.3205 7.45217 18.4699 5.22004 18.8095C2.98626 19.1494 0.771901 18.6638 -0.618355 17.2138C-2.88038 14.8544 -2.32852 10.8842 0.23934 8.56716C4.32617 4.87975 9.00802 5.48641 11.4167 7.2155Z" fill="#F1BD46" stroke="#530D11"/>
<path d="M7.21886 14.139L2.37829 16.9378L2.75481 11.1604L5.58526 12.1044L7.21886 14.139ZM7.99919 13.3333L6.25883 11.2542L3.40583 10.3247C3.77252 9.98617 6.97638 8.47422 8.53289 7.76054L7.99919 13.3333Z" fill="#530D11"/>
<path d="M6.54326 5.40927C7.58818 5.34787 8.6236 5.4726 9.58659 5.81485L1.50116 18.6946C1.06598 18.5565 0.657747 18.3855 0.290644 18.1833C-0.119612 17.9575 -0.547363 17.6436 -0.939836 17.2446L6.54326 5.40927ZM3.64109 6.04496C2.19017 8.33985 -0.221887 12.1348 -2.17827 15.2111C-2.38137 14.5725 -2.47136 13.8451 -2.38785 13.0294C-2.0614 9.84453 0.556223 7.21282 3.64109 6.04496Z" fill="#FFD77C"/>
<path d="M6.72256 13.7202L1.8827 16.5184L2.25923 10.7409L5.08896 11.6856L6.72256 13.7202ZM7.50427 12.9146L5.76391 10.8355L2.91091 9.906C3.2776 9.56746 6.48146 8.05552 8.03798 7.34184L7.50427 12.9146Z" fill="#FFE6AE"/>
<path d="M4.69629 11.5588L1.91753 15.9858L2.25951 10.7463L4.69629 11.5588ZM5.25312 10.6723L2.91096 9.90929C3.21168 9.63198 5.41268 8.56999 7.05494 7.80197L5.25312 10.6723Z" fill="#FFFCF6"/>
</svg>
