<svg width="345" height="77" viewBox="0 0 345 77" fill="none" xmlns="http://www.w3.org/2000/svg">
<g filter="url(#filter0_d_1_1115)">
<mask id="path-1-outside-1_1_1115" maskUnits="userSpaceOnUse" x="-0.996582" y="-0.999565" width="346" height="71" fill="black">
<rect fill="white" x="-0.996582" y="-0.999565" width="346" height="71"/>
<path d="M181.513 2.01215C188.566 1.9947 193.262 1.99729 196.242 2.01197C197.31 2.01723 204.104 2.11496 205.172 2.12101C207.427 2.13379 209.799 2.14771 212.292 2.16352C258.975 2.45958 313.03 10.3702 334.741 14.3771C335.058 14.4355 335.309 14.6398 335.446 14.931L342.244 29.3813C342.538 29.8745 342.183 30.5004 341.608 30.5004H333.484C333.314 30.5004 333.134 30.4384 332.972 30.494C332.04 30.8153 329.589 34.4773 325.374 47.6508C320.697 62.2662 310.396 66.6665 305.831 67.0395H42.7661C37.6705 66.6666 26.1745 62.2664 20.9546 47.6508C16.1696 34.253 13.4211 30.6934 12.422 30.4805C12.2704 30.4482 12.1122 30.5004 11.9572 30.5004H2.72443C2.1495 30.5004 1.80657 29.8597 2.12549 29.3813L9.72463 14.9071C9.8701 14.63 10.1194 14.4398 10.4282 14.3887C34.6131 10.3855 95.0098 2.45985 147.164 2.16352C153.643 2.1267 159.387 2.09709 164.469 2.07368C165.306 2.01815 169.752 1.97968 181.513 2.01215Z"/>
</mask>
<g filter="url(#filter1_ii_1_1115)">
<path d="M181.513 2.01215C188.566 1.9947 193.262 1.99729 196.242 2.01197C197.31 2.01723 204.104 2.11496 205.172 2.12101C207.427 2.13379 209.799 2.14771 212.292 2.16352C258.975 2.45958 313.03 10.3702 334.741 14.3771C335.058 14.4355 335.309 14.6398 335.446 14.931L342.244 29.3813C342.538 29.8745 342.183 30.5004 341.608 30.5004H333.484C333.314 30.5004 333.134 30.4384 332.972 30.494C332.04 30.8153 329.589 34.4773 325.374 47.6508C320.697 62.2662 310.396 66.6665 305.831 67.0395H42.7661C37.6705 66.6666 26.1745 62.2664 20.9546 47.6508C16.1696 34.253 13.4211 30.6934 12.422 30.4805C12.2704 30.4482 12.1122 30.5004 11.9572 30.5004H2.72443C2.1495 30.5004 1.80657 29.8597 2.12549 29.3813L9.72463 14.9071C9.8701 14.63 10.1194 14.4398 10.4282 14.3887C34.6131 10.3855 95.0098 2.45985 147.164 2.16352C153.643 2.1267 159.387 2.09709 164.469 2.07368C165.306 2.01815 169.752 1.97968 181.513 2.01215Z" fill="#FFA013"/>
</g>
<path d="M181.513 2.01215L181.508 4.01217L181.518 4.01215L181.513 2.01215ZM212.292 2.16352L212.304 0.163561L212.292 2.16352ZM342.244 29.3813L340.434 30.2326C340.462 30.292 340.493 30.35 340.526 30.4063L342.244 29.3813ZM325.374 47.6508L323.469 47.0413V47.0413L325.374 47.6508ZM305.831 67.0395V69.0395C305.885 69.0395 305.939 69.0373 305.993 69.0329L305.831 67.0395ZM42.7661 67.0395L42.6201 69.0342C42.6687 69.0377 42.7174 69.0395 42.7661 69.0395V67.0395ZM20.9546 47.6508L22.8381 46.9781L20.9546 47.6508ZM2.12549 29.3813L3.78959 30.4907C3.82826 30.4327 3.86387 30.3727 3.89627 30.311L2.12549 29.3813ZM147.164 2.16352L147.152 0.163553L147.164 2.16352ZM164.469 2.07368L164.478 4.07366C164.52 4.07347 164.561 4.07201 164.602 4.06929L164.469 2.07368ZM9.72463 14.9071L7.95384 13.9774L9.72463 14.9071ZM334.741 14.3771L334.378 16.3438L334.741 14.3771ZM335.446 14.931L333.636 15.7823L335.446 14.931ZM12.422 30.4805L12.8388 28.5244L12.422 30.4805ZM332.972 30.494L333.624 32.3847L332.972 30.494ZM181.513 2.01215L181.518 4.01215C188.569 3.9947 193.259 3.99731 196.233 4.01195L196.242 2.01197L196.252 0.0119959C193.264 -0.00271749 188.562 -0.00529432 181.508 0.0121597L181.513 2.01215ZM205.172 2.12101L205.161 4.12098C207.416 4.13376 209.787 4.14768 212.279 4.16348L212.292 2.16352L212.304 0.163561C209.811 0.147749 207.439 0.133825 205.184 0.121045L205.172 2.12101ZM212.292 2.16352L212.279 4.16348C258.799 4.45851 312.727 12.348 334.378 16.3438L334.741 14.3771L335.104 12.4103C313.333 8.39233 259.151 0.460656 212.304 0.163561L212.292 2.16352ZM335.446 14.931L333.636 15.7823L340.434 30.2326L342.244 29.3813L344.053 28.53L337.256 14.0797L335.446 14.931ZM341.608 30.5004V28.5004H333.484V30.5004V32.5004H341.608V30.5004ZM332.972 30.494L332.32 28.6032C331.818 28.7766 331.433 29.0859 331.172 29.3348C330.889 29.604 330.62 29.9297 330.36 30.2913C329.841 31.0147 329.258 32.0266 328.603 33.3833C327.29 36.1044 325.59 40.4117 323.469 47.0413L325.374 47.6508L327.278 48.2604C329.372 41.7164 331.006 37.606 332.205 35.1223C332.807 33.8767 333.275 33.0895 333.609 32.6242C333.776 32.3915 333.884 32.2754 333.931 32.2314C333.998 32.1671 333.894 32.2917 333.624 32.3847L332.972 30.494ZM325.374 47.6508L323.469 47.0413C319.037 60.8904 309.421 64.7396 305.668 65.0461L305.831 67.0395L305.993 69.0329C311.372 68.5935 322.356 63.6421 327.278 48.2604L325.374 47.6508ZM305.831 67.0395V65.0395H42.7661V67.0395V69.0395H305.831V67.0395ZM42.7661 67.0395L42.9121 65.0448C38.5082 64.7226 27.76 60.7595 22.8381 46.9781L20.9546 47.6508L19.0711 48.3235C24.5889 63.7733 36.8328 68.6107 42.6201 69.0342L42.7661 67.0395ZM20.9546 47.6508L22.8381 46.9781C20.4288 40.2322 18.5053 35.8849 17.0253 33.1653C16.2875 31.8096 15.6313 30.8048 15.0463 30.096C14.7538 29.7416 14.4484 29.4236 14.1274 29.1672C13.8283 28.9284 13.3918 28.6423 12.8388 28.5244L12.422 30.4805L12.0051 32.4366C11.7019 32.372 11.5698 32.2437 11.631 32.2926C11.6703 32.324 11.7809 32.4236 11.9614 32.6423C12.3222 33.0794 12.8395 33.8418 13.5119 35.0773C14.8521 37.5401 16.6954 41.6716 19.0711 48.3235L20.9546 47.6508ZM11.9572 30.5004V28.5004H2.72443V30.5004V32.5004H11.9572V30.5004ZM2.12549 29.3813L3.89627 30.311L11.4954 15.8368L9.72463 14.9071L7.95384 13.9774L0.354702 28.4516L2.12549 29.3813ZM10.4282 14.3887L10.7548 16.3619C34.8852 12.3677 95.1674 4.45899 147.175 4.16349L147.164 2.16352L147.152 0.163553C94.8522 0.460718 34.341 8.40337 10.1016 12.4156L10.4282 14.3887ZM147.164 2.16352L147.175 4.16349C153.654 4.12667 159.397 4.09706 164.478 4.07366L164.469 2.07368L164.46 0.0736983C159.377 0.0971103 153.633 0.126732 147.152 0.163553L147.164 2.16352ZM164.469 2.07368L164.602 4.06929C165.349 4.01972 169.692 3.97952 181.508 4.01215L181.513 2.01215L181.519 0.0121613C169.813 -0.0201621 165.263 0.0165863 164.337 0.0780673L164.469 2.07368ZM342.244 29.3813L340.526 30.4063C340.025 29.5664 340.63 28.5004 341.608 28.5004V30.5004V32.5004C343.735 32.5004 345.051 30.1826 343.961 28.3563L342.244 29.3813ZM9.72463 14.9071L11.4954 15.8368C11.3688 16.078 11.104 16.3041 10.7548 16.3619L10.4282 14.3887L10.1016 12.4156C9.13485 12.5756 8.37142 13.1821 7.95384 13.9774L9.72463 14.9071ZM334.741 14.3771L334.378 16.3438C334.021 16.278 333.756 16.0369 333.636 15.7823L335.446 14.931L337.256 14.0797C336.862 13.2427 336.094 12.593 335.104 12.4103L334.741 14.3771ZM12.422 30.4805L12.8388 28.5244C12.427 28.4367 12.0769 28.4782 11.9609 28.4916C11.9272 28.4955 11.8949 28.4997 11.879 28.5017C11.8585 28.5044 11.8529 28.505 11.8502 28.5053C11.8438 28.5061 11.8885 28.5004 11.9572 28.5004V30.5004V32.5004C12.0323 32.5004 12.0993 32.4973 12.1554 32.4934C12.2112 32.4894 12.2601 32.4845 12.2976 32.4802C12.3339 32.4761 12.3673 32.4719 12.3858 32.4695C12.4089 32.4665 12.4156 32.4657 12.4209 32.4651C12.4245 32.4647 12.4164 32.4657 12.4015 32.4668C12.3863 32.468 12.36 32.4696 12.3255 32.4699C12.2568 32.4706 12.1439 32.4662 12.0051 32.4366L12.422 30.4805ZM333.484 30.5004V28.5004C333.555 28.5004 333.601 28.5067 333.582 28.5045C333.571 28.5033 333.564 28.5024 333.533 28.4986C333.508 28.4955 333.468 28.4906 333.422 28.4861C333.267 28.4707 332.824 28.4296 332.32 28.6032L332.972 30.494L333.624 32.3847C333.446 32.4463 333.293 32.4645 333.191 32.4693C333.095 32.4738 333.03 32.4668 333.028 32.4666C333.025 32.4664 333.028 32.4666 333.047 32.4689C333.059 32.4704 333.096 32.475 333.128 32.4787C333.165 32.4829 333.215 32.4882 333.273 32.4925C333.331 32.4968 333.403 32.5004 333.484 32.5004V30.5004ZM2.72443 30.5004V28.5004C3.74689 28.5004 4.35674 29.64 3.78959 30.4907L2.12549 29.3813L0.461388 28.2719C-0.743602 30.0794 0.552107 32.5004 2.72443 32.5004V30.5004ZM196.242 2.01197L196.233 4.01195C196.756 4.01452 198.708 4.04008 200.681 4.06602C202.64 4.09178 204.617 4.1179 205.161 4.12098L205.172 2.12101L205.184 0.121045C204.66 0.118075 202.706 0.0923059 200.734 0.0663679C198.776 0.0406177 196.797 0.0146785 196.252 0.0119959L196.242 2.01197Z" fill="#341D1A" mask="url(#path-1-outside-1_1_1115)"/>
<path d="M13.782 34.2281L10.3332 26.3983" stroke="#341D1A" stroke-width="2" stroke-linecap="round"/>
<path d="M332.29 34.1421L336.11 26.4866" stroke="#341D1A" stroke-width="2" stroke-linecap="round"/>
</g>
<defs>
<filter id="filter0_d_1_1115" x="0" y="0" width="344.352" height="76.0395" filterUnits="userSpaceOnUse" color-interpolation-filters="sRGB">
<feFlood flood-opacity="0" result="BackgroundImageFix"/>
<feColorMatrix in="SourceAlpha" type="matrix" values="0 0 0 0 0 0 0 0 0 0 0 0 0 0 0 0 0 0 127 0" result="hardAlpha"/>
<feOffset dy="7"/>
<feComposite in2="hardAlpha" operator="out"/>
<feColorMatrix type="matrix" values="0 0 0 0 0.74902 0 0 0 0 0.470588 0 0 0 0 0.054902 0 0 0 0.2 0"/>
<feBlend mode="normal" in2="BackgroundImageFix" result="effect1_dropShadow_1_1115"/>
<feBlend mode="normal" in="SourceGraphic" in2="effect1_dropShadow_1_1115" result="shape"/>
</filter>
<filter id="filter1_ii_1_1115" x="0" y="0" width="344.352" height="69.0395" filterUnits="userSpaceOnUse" color-interpolation-filters="sRGB">
<feFlood flood-opacity="0" result="BackgroundImageFix"/>
<feBlend mode="normal" in="SourceGraphic" in2="BackgroundImageFix" result="shape"/>
<feColorMatrix in="SourceAlpha" type="matrix" values="0 0 0 0 0 0 0 0 0 0 0 0 0 0 0 0 0 0 127 0" result="hardAlpha"/>
<feOffset dy="5"/>
<feComposite in2="hardAlpha" operator="arithmetic" k2="-1" k3="1"/>
<feColorMatrix type="matrix" values="0 0 0 0 0.686275 0 0 0 0 0.588235 0 0 0 0 0.223529 0 0 0 1 0"/>
<feBlend mode="normal" in2="shape" result="effect1_innerShadow_1_1115"/>
<feColorMatrix in="SourceAlpha" type="matrix" values="0 0 0 0 0 0 0 0 0 0 0 0 0 0 0 0 0 0 127 0" result="hardAlpha"/>
<feOffset dy="-6"/>
<feComposite in2="hardAlpha" operator="arithmetic" k2="-1" k3="1"/>
<feColorMatrix type="matrix" values="0 0 0 0 0 0 0 0 0 0 0 0 0 0 0 0 0 0 0.25 0"/>
<feBlend mode="normal" in2="effect1_innerShadow_1_1115" result="effect2_innerShadow_1_1115"/>
</filter>
</defs>
</svg>
