<svg width="375" height="68" viewBox="0 0 375 68" fill="none" xmlns="http://www.w3.org/2000/svg">
<path d="M964.7 57.6938C964.7 57.6942 964.699 57.6946 964.699 57.6946H964.697C964.697 57.6946 964.697 57.6951 964.697 57.6952C964.697 57.6954 964.697 57.6957 964.697 57.6958L944.547 66.5217C941.91 67.6764 938.911 67.6765 936.275 66.5217L916.123 57.6958C916.123 57.6957 916.123 57.6954 916.123 57.6952C916.124 57.6951 916.123 57.6946 916.123 57.6946H916.121C916.121 57.6946 916.121 57.6951 916.121 57.6952C916.121 57.6954 916.121 57.6957 916.121 57.6958L895.971 66.5216C893.334 67.6764 890.335 67.6764 887.698 66.5216L879.691 63.0142C871.95 59.6239 863.145 59.624 855.404 63.0144C847.664 66.4048 838.858 66.4047 831.118 63.0144C823.377 59.6241 814.571 59.624 806.831 63.0145C799.091 66.4048 790.285 66.405 782.545 63.0148L770.4 57.6957C770.4 57.6956 770.4 57.6955 770.4 57.6953C770.399 57.6949 770.399 57.6947 770.398 57.695L755.603 64.1758C749.553 66.8259 742.671 66.8259 736.621 64.1758L733.968 63.0139C726.228 59.6232 717.422 59.6232 709.681 63.0139C701.94 66.4046 693.135 66.4047 685.394 63.0141L673.25 57.695C673.25 57.6947 673.249 57.6946 673.249 57.6946C673.248 57.6946 673.247 57.6947 673.247 57.695L661.104 63.0139C653.363 66.4046 644.558 66.4046 636.817 63.0139C629.076 59.6232 620.271 59.6232 612.53 63.0139L602.238 67.522C601.058 68.0391 599.715 68.0391 598.534 67.522L576.099 57.695C576.099 57.6949 576.099 57.6952 576.099 57.6953C576.099 57.6954 576.099 57.6956 576.099 57.6957L557.403 65.8843C553.838 67.4453 549.784 67.4453 546.219 65.8842L539.668 63.0149C531.928 59.6248 523.123 59.6248 515.383 63.0149L507.377 66.5217C504.74 67.6764 501.741 67.6764 499.105 66.5216L478.954 57.6958C478.954 57.6957 478.954 57.6954 478.954 57.6952C478.955 57.6951 478.954 57.6946 478.954 57.6946H478.949C478.949 57.6946 478.949 57.6951 478.949 57.6952C478.949 57.6954 478.949 57.6957 478.949 57.6958L458.798 66.5216C456.161 67.6764 453.162 67.6763 450.525 66.5214L442.519 63.0146C434.779 59.6241 425.974 59.6241 418.234 63.0146L410.228 66.5214C407.591 67.6763 404.592 67.6764 401.955 66.5216L381.804 57.6958C381.804 57.6957 381.804 57.6954 381.804 57.6952C381.804 57.6951 381.804 57.6946 381.804 57.6946H381.799C381.798 57.6946 381.798 57.6946 381.798 57.6947L369.655 63.014C361.914 66.4047 353.108 66.4044 345.367 63.0138C337.627 59.6233 328.822 59.6232 321.081 63.014C313.341 66.4046 304.536 66.4048 296.796 63.0145L284.652 57.695C284.651 57.6947 284.651 57.6946 284.65 57.6946C284.649 57.6946 284.649 57.6947 284.648 57.695L274.004 62.3576C265.308 66.1667 255.416 66.1667 246.72 62.3576L236.076 57.695C236.075 57.6947 236.074 57.6946 236.074 57.6946C236.073 57.6946 236.072 57.6947 236.072 57.695L223.927 63.0146C216.187 66.4049 207.382 66.4048 199.642 63.0143C191.903 59.624 183.098 59.6238 175.358 63.0138L167.35 66.5216C164.713 67.6764 161.714 67.6764 159.077 66.5216L138.927 57.6958C138.927 57.6957 138.927 57.6954 138.927 57.6952C138.927 57.6951 138.927 57.6946 138.927 57.6946H138.919C138.919 57.6946 138.918 57.6951 138.919 57.6952C138.919 57.6954 138.919 57.6957 138.919 57.6958L118.769 66.5216C116.132 67.6764 113.133 67.6764 110.496 66.5215L102.489 63.0143C94.7488 59.6239 85.9437 59.624 78.2035 63.0145L70.1973 66.5214C67.5607 67.6763 64.5613 67.6764 61.9247 66.5216L41.7746 57.6958C41.7744 57.6957 41.7743 57.6954 41.7746 57.6952C41.7749 57.6951 41.7748 57.6946 41.7744 57.6946H41.7715C41.7711 57.6946 41.771 57.6951 41.7713 57.6952C41.7716 57.6954 41.7715 57.6957 41.7713 57.6958L21.6202 66.5216C18.9836 67.6764 15.9843 67.6763 13.3477 66.5214L5.34167 63.0146C-2.39862 59.6241 -11.2039 59.6241 -18.9442 63.0146L-26.9502 66.5214C-29.5868 67.6763 -32.5861 67.6764 -35.2228 66.5216L-55.3738 57.6958C-55.3741 57.6957 -55.3741 57.6954 -55.3738 57.6952C-55.3735 57.6951 -55.3737 57.6946 -55.374 57.6946H-55.376C-55.3763 57.6946 -55.3765 57.6951 -55.3762 57.6952C-55.3759 57.6954 -55.3759 57.6957 -55.3762 57.6958L-75.5274 66.5217C-78.1639 67.6764 -81.1632 67.6764 -83.7997 66.5216L-91.8075 63.0142C-99.548 59.6239 -108.353 59.624 -116.094 63.0144L-124.101 66.5215C-126.737 67.6764 -129.736 67.6764 -132.373 66.5216L-152.523 57.6958C-152.524 57.6957 -152.524 57.6954 -152.523 57.6952C-152.523 57.6951 -152.523 57.6946 -152.523 57.6946H-152.526C-152.527 57.6946 -152.527 57.6951 -152.527 57.6952C-152.526 57.6954 -152.526 57.6957 -152.527 57.6958L-172.678 66.5217C-175.314 67.6764 -178.314 67.6764 -180.95 66.5216L-201.101 57.6956L-201.101 57.6954C-201.1 57.6952 -201.101 57.6946 -201.101 57.6946C-201.102 57.6946 -201.102 57.6952 -201.101 57.6954L-201.101 57.6956L-213.245 63.0147C-220.986 66.4049 -229.791 66.4048 -237.531 63.0144C-245.271 59.6241 -254.077 59.624 -261.817 63.0145C-269.557 66.4049 -278.362 66.4051 -286.102 63.015L-298.248 57.6956L-298.247 57.6954C-298.247 57.6952 -298.247 57.6946 -298.248 57.6946C-298.248 57.6946 -298.248 57.6952 -298.248 57.6954L-298.248 57.6956L-318.4 66.5217C-321.036 67.6765 -324.035 67.6764 -326.672 66.5217L-346.822 57.6958C-346.822 57.6957 -346.822 57.6954 -346.822 57.6952C-346.822 57.6951 -346.822 57.6946 -346.822 57.6946H-346.825C-346.826 57.6946 -346.826 57.6951 -346.825 57.6952C-346.825 57.6954 -346.825 57.6957 -346.825 57.6958L-366.976 66.5217C-369.612 67.6764 -372.611 67.6765 -375.248 66.5217L-395.399 57.6958C-395.4 57.6957 -395.4 57.6954 -395.399 57.6952C-395.399 57.6951 -395.399 57.6946 -395.399 57.6946H-395.401C-395.402 57.6946 -395.402 57.6951 -395.402 57.6952C-395.401 57.6954 -395.401 57.6957 -395.402 57.6958L-415.552 66.5216C-418.188 67.6764 -421.188 67.6764 -423.824 66.5217L-431.831 63.0147C-439.571 59.6247 -448.375 59.6248 -456.115 63.0149L-464.121 66.5216C-466.758 67.6764 -469.757 67.6764 -472.394 66.5217L-492.545 57.6958C-492.545 57.6957 -492.545 57.6954 -492.545 57.6952C-492.544 57.6951 -492.545 57.6946 -492.545 57.6946H-492.552C-492.552 57.6946 -492.552 57.6951 -492.552 57.6952C-492.552 57.6954 -492.552 57.6957 -492.552 57.6958L-512.702 66.5216C-515.339 67.6764 -518.338 67.6764 -520.975 66.5216L-528.982 63.0144C-536.723 59.624 -545.528 59.624 -553.269 63.0144L-561.276 66.5216C-563.913 67.6764 -566.912 67.6764 -569.549 66.5216L-589.699 57.6958C-589.699 57.6957 -589.699 57.6954 -589.699 57.6952C-589.699 57.6951 -589.699 57.6946 -589.699 57.6946H-589.699C-589.7 57.6946 -589.7 57.6944 -589.7 57.6942V-112.188C-589.7 -130.966 -574.477 -146.188 -555.7 -146.188H930.7C949.477 -146.188 964.7 -130.966 964.7 -112.188V57.6938Z" fill="#FFF6DE"/>
</svg>
