<svg width="108" height="107" viewBox="0 0 108 107" fill="none" xmlns="http://www.w3.org/2000/svg">
<path d="M84.9361 48.0893C85.048 48.8454 85.1194 49.6346 85.123 50.4416L85.1227 50.4426C85.1694 58.8105 82.7513 66.0248 77.069 71.3078L76.5086 71.8132C76.2899 72.0048 76.0949 72.1901 75.9192 72.3553C75.7461 72.518 75.5918 72.6591 75.4396 72.7853L70.6766 76.0362C69.7971 76.5152 69.022 76.9235 68.1304 77.3246L68.1294 77.3244C66.5433 78.0421 64.6106 78.7852 62.8012 79.2278C54.8523 81.1755 46.2502 80.8912 38.4354 77.0613L37.6819 76.6803C34.23 74.8688 31.2714 72.5348 28.9512 69.8364L28.4951 69.2921C26.3467 66.646 25.3449 64.563 24.7566 62.8981C24.4604 62.0597 24.2677 61.3237 24.0825 60.6482C23.911 60.0226 23.7408 59.4335 23.4983 58.8984C23.4975 58.4266 23.4385 57.901 23.3726 57.3922C23.2991 56.8237 23.2195 56.2688 23.1916 55.7489L23.1919 55.748L23.1745 55.3471C23.1564 54.8016 23.1617 54.2437 23.19 53.6755C23.7168 56.8035 24.9359 59.5622 26.3335 61.6704C29.8072 66.9155 36.1578 71.7282 43.3575 73.6496C51.4253 75.8027 58.758 75.8054 66.2827 73.4122C72.2578 71.5141 77.4077 65.6314 81.19 59.4903C83.8685 55.1438 84.9446 51.3899 84.9361 48.0893Z" fill="#FFA013" stroke="#530D11"/>
<path d="M84.1623 43.8345C86.6329 48.7437 85.9371 54.0739 82.778 59.1316C79.6117 64.2006 73.9822 68.9665 66.672 72.6456C59.4529 76.2786 49.9401 76.315 41.6378 73.4349C33.3342 70.5544 26.3521 64.7981 24.0758 56.9665C20.3685 44.2119 29.8299 31.3393 42.9724 28.002C63.6638 22.7481 78.8595 33.2978 84.1623 43.8345Z" fill="#FFA013" stroke="#530D11"/>
<path d="M69.8633 29.9031C73.4516 31.5332 76.6852 33.7639 79.2975 36.5914L29.9103 65.235C28.6955 64.0094 27.633 62.7168 26.7587 61.3967C25.7864 59.9301 24.9054 58.1421 24.2918 56.1332L69.8633 29.9031ZM59.1072 26.915C50.2689 32.0026 35.5906 40.4087 23.6971 47.2126C24.1295 44.7242 25.0994 42.139 26.8052 39.5631C33.4467 29.5361 46.7775 25.3718 59.1072 26.915Z" fill="#FFBD5C"/>
<path d="M58.4978 54.3495L50.1337 53.1983C49.7461 53.1327 49.4825 53.0056 49.3428 52.817C49.2231 52.634 49.186 52.3459 49.2318 51.9527L49.704 47.854C49.7498 47.4608 49.8796 47.1872 50.0936 47.0333C50.3273 46.885 50.638 46.8436 51.0257 46.9092L57.1744 47.7298C57.4828 47.7733 57.7158 47.7422 57.8735 47.6367C58.0312 47.5312 58.1516 47.3298 58.2346 47.0325C58.3122 46.755 58.3009 46.5276 58.201 46.3501C58.101 46.1725 57.9222 46.0478 57.6645 45.9758L49.4592 43.6831C49.0826 43.5779 48.8273 43.4211 48.6932 43.2127C48.5845 42.99 48.5828 42.6903 48.688 42.3138L49.6931 38.7165C49.7984 38.3399 49.9524 38.0945 50.1553 37.9803C50.3835 37.8517 50.6859 37.8401 51.0624 37.9453L60.6651 40.6284C62.5876 41.1656 63.9665 42.0424 64.8018 43.2587C65.6427 44.4551 65.8278 45.8957 65.357 47.5804L64.4848 50.702C64.0196 52.3668 63.2711 53.4397 62.2393 53.9206C61.2075 54.4015 59.9604 54.5445 58.4978 54.3495ZM52.9003 61.5353L47.4598 60.0151C47.0832 59.9099 46.8279 59.7531 46.6938 59.5447C46.5851 59.322 46.5834 59.0223 46.6886 58.6458L47.7768 54.7512C47.882 54.3746 48.0361 54.1292 48.2389 54.015C48.4671 53.8864 48.7695 53.8748 49.1461 53.98L54.5866 55.5002C54.9632 55.6054 55.2058 55.7693 55.3145 55.992C55.4486 56.2004 55.463 56.4929 55.3578 56.8695L54.2696 60.764C54.1644 61.1406 53.9976 61.3932 53.7694 61.5217C53.5666 61.636 53.2768 61.6405 52.9003 61.5353Z" fill="#341D1A"/>
</svg>
