<svg width="97" height="106" viewBox="0 0 97 106" fill="none" xmlns="http://www.w3.org/2000/svg">
<path d="M95.969 59.0148C93.0854 85.7911 74.754 105.152 54.7748 105.152C34.7956 105.152 52.7151 105.152 51.6852 105.152C50.6554 105.152 49.4195 104.946 48.3897 104.74C31.2941 101.239 17.0821 83.1134 15.2283 59.2208C13.1686 32.4445 27.1746 7.31605 48.3897 1.75483C51.0673 1.13692 53.7449 0.724976 56.6285 0.724976C80.7272 0.724976 97.8228 26.2654 96.381 55.3073C96.381 56.5432 96.381 57.985 96.175 59.2208L95.969 59.0148Z" fill="url(#paint0_linear_5_905)"/>
<path d="M41.7986 105.152C41.7986 105.152 54.9808 107.006 62.3958 104.329L66.1032 2.3728C66.1032 2.3728 61.5719 -1.3347 38.5031 0.519045L41.7986 105.152Z" fill="url(#paint1_linear_5_905)"/>
<path d="M81.3451 59.0149C79.4913 82.9075 65.2793 101.033 48.1837 104.534C46.124 104.946 43.8583 105.152 41.5927 105.152C28.2045 105.152 15.6403 96.5016 8.01934 83.1135C8.01934 82.9075 7.81338 82.7016 7.60741 82.4956C7.40143 82.0836 7.19545 81.6717 7.19545 81.6717C3.69394 75.0806 1.2223 67.4597 0.398413 59.0149C-2.89713 28.5311 14.6104 0.519043 39.7389 0.519043C64.8674 0.519043 45.3001 0.930985 47.9778 1.5489C68.9868 7.11012 83.1988 32.0327 81.1391 59.0149H81.3451Z" fill="url(#paint2_linear_5_905)"/>
<path d="M64.0435 59.0149C63.4256 75.9046 52.921 88.8808 40.1508 89.7046C39.7389 89.7046 39.3269 89.7046 38.915 89.7046C25.5269 89.7046 13.7865 76.5225 12.3447 59.0149C10.6969 40.0656 22.0254 23.1759 37.4732 23.1759C52.921 23.1759 38.503 23.1759 39.121 23.1759C53.7449 24.2058 64.8674 40.4775 64.2494 58.809L64.0435 59.0149Z" fill="url(#paint3_linear_5_905)"/>
<path d="M64.0435 59.0149C63.4256 75.9045 52.9211 88.8807 40.1509 89.7046C27.3806 88.8807 16.4642 75.9045 15.0224 59.0149C13.5806 40.6834 24.0851 24.4117 38.7091 23.3818C53.333 24.4117 64.4555 40.6834 63.8375 59.0149H64.0435Z" fill="url(#paint4_linear_5_905)"/>
<g style="mix-blend-mode:multiply" opacity="0.5">
<path d="M14.1984 42.5371C14.1984 42.5371 15.8462 45.0088 16.8761 43.7729C17.9059 42.5371 22.2313 28.943 37.0612 27.2952C51.8912 25.6475 61.9838 43.7729 61.9838 43.7729C61.9838 43.7729 54.1569 22.3519 36.8553 23.1758C19.7597 23.9997 14.1984 42.5371 14.1984 42.5371Z" fill="#D42F55"/>
</g>
<g style="mix-blend-mode:soft-light">
<path d="M3.48801 36.3581C3.48801 43.5671 10.903 42.1252 11.9328 41.7133C12.9627 41.3014 18.5239 28.1192 30.4702 22.558C42.6225 16.7908 53.745 27.2953 57.6584 32.4446C61.5719 37.5939 72.4884 28.7371 73.3122 24.4117C74.1361 20.0863 54.5689 -3.39438 31.7061 2.78475C9.46117 8.75792 3.48801 36.1521 3.48801 36.1521V36.3581Z" fill="white"/>
</g>
<g style="mix-blend-mode:multiply" opacity="0.2">
<path d="M3.07603 40.2715C-0.219509 40.2715 0.398411 55.7193 1.63424 61.6925C2.87006 67.2537 9.04919 64.988 10.285 63.1343C11.5208 61.0746 11.9328 44.8029 12.1388 43.567C12.1388 42.3312 10.0791 42.7432 6.98949 42.5372C3.89992 42.3312 3.69395 40.4775 2.87006 40.4775L3.07603 40.2715Z" fill="#DA0553"/>
</g>
<g style="mix-blend-mode:multiply" opacity="0.2">
<path d="M61.9837 35.5342C59.924 36.5641 63.4255 48.3044 65.4852 55.7194C67.545 62.9284 75.3719 53.4537 78.4614 53.8657C81.551 54.2776 77.8435 30.3849 75.7838 28.3252C73.5181 26.2655 69.1927 33.6805 61.9837 35.3282V35.5342Z" fill="#DA0553"/>
</g>
<g style="mix-blend-mode:soft-light">
<path d="M26.5567 100.003C19.7597 91.1464 35.4135 94.03 45.3001 89.7046C55.5986 85.1733 59.7181 78.1703 62.3957 75.9046C65.0733 73.4329 73.1062 81.4658 72.2823 84.7613C71.4584 88.2629 55.3927 112.979 26.5567 100.003Z" fill="#FF973B"/>
</g>
<g style="mix-blend-mode:multiply" opacity="0.3">
<path d="M57.4524 2.7847C56.0106 2.7847 71.4584 15.9668 75.3719 22.7639C79.0793 29.355 81.345 37.1819 82.7868 38.8297C84.2286 40.4774 94.1152 38.2117 94.1152 38.2117C94.1152 38.2117 92.0555 23.3818 82.7868 13.2892C73.1062 2.57874 57.4524 2.99068 57.4524 2.99068V2.7847Z" fill="#B30053"/>
</g>
<g style="mix-blend-mode:multiply" opacity="0.3">
<path d="M62.6017 98.7673C60.5419 100.827 69.6047 100.415 70.6345 100.003C71.6644 99.5912 83.8167 93.0001 87.3182 84.7613C91.0257 76.3165 81.345 75.9045 79.6973 75.9045C78.0495 75.9045 74.9599 84.1434 68.9868 91.3524C63.2196 98.3554 62.8076 98.5613 62.8076 98.5613L62.6017 98.7673Z" fill="#B30053"/>
</g>
<g style="mix-blend-mode:soft-light">
<path d="M81.757 40.2715C80.1092 40.2715 82.1689 51.8059 82.3749 60.6627C82.3749 69.3135 94.7332 66.2239 94.9392 65.1941C94.9392 64.1642 95.969 53.4537 95.763 48.3044C95.3511 43.1552 96.7929 39.2417 92.6735 39.0357C88.554 39.0357 81.757 40.0656 81.757 40.0656V40.2715Z" fill="white"/>
</g>
<path d="M22.6432 82.7015C20.7895 76.9343 23.4671 83.5254 31.9119 87.4389C40.1508 91.3523 50.6553 87.4389 54.9807 82.0836C54.9807 82.0836 49.4195 89.2926 39.5329 89.7045C28.4104 90.1165 22.4373 82.7015 22.4373 82.7015H22.6432Z" fill="#FFE016"/>
<g style="mix-blend-mode:soft-light">
<path d="M36.8552 1.96093C28.6164 2.57884 28.4104 21.1162 35.0015 21.3222C41.5926 21.3222 48.1836 21.9401 57.2464 31.8268C65.8972 41.3014 73.1062 25.0297 72.6942 21.9401C72.2823 18.6446 59.924 -1.33461 36.8552 1.96093Z" fill="white"/>
</g>
<g style="mix-blend-mode:soft-light">
<path d="M15.6403 93.0002C6.57753 82.9076 17.7 81.0539 19.7597 81.4658C21.8194 82.0837 26.7627 88.8808 37.2672 89.9106C47.7718 90.9405 41.1807 103.711 37.2672 104.123C33.3538 104.329 21.6134 99.7972 15.6403 93.0002Z" fill="white"/>
</g>
<path d="M50.8614 2.7847C46.9479 2.7847 52.5091 16.1728 57.2465 20.9102C61.9838 25.4415 69.6047 18.8504 69.1928 16.5848C68.9868 14.3191 58.4823 5.25635 50.8614 2.7847Z" fill="white"/>
<path d="M19.3477 92.7942C17.7 89.0867 26.3508 94.648 25.3209 96.5017C24.291 98.3555 20.9955 96.5017 19.3477 92.7942Z" fill="white"/>
<g style="mix-blend-mode:soft-light">
<path d="M66.927 60.8686C64.8673 62.1045 64.8674 69.7254 56.8345 81.8777C49.2135 93.4121 57.4524 97.7375 59.3061 97.7375C61.1599 97.7375 72.9002 86.821 77.4316 73.6388C82.3749 59.6328 78.4614 57.1612 77.2256 56.5433C75.9898 55.9253 68.7808 59.6328 66.927 60.6627V60.8686Z" fill="white"/>
</g>
<g style="mix-blend-mode:soft-light">
<path d="M56.4225 2.78475C50.8613 2.78475 64.4554 9.5818 69.3987 12.0535C74.1361 14.5251 79.6973 10.1997 79.6973 10.1997C79.6973 10.1997 73.5181 1.137 56.6285 2.99074L56.4225 2.78475Z" fill="white"/>
</g>
<g style="mix-blend-mode:soft-light">
<path d="M12.1387 57.3671C11.7268 54.0715 13.5805 47.6864 14.1984 46.8625C14.8163 46.0386 16.6701 62.3104 16.0522 65.194C15.4342 68.0776 12.3447 59.2208 12.1387 57.3671Z" fill="white"/>
</g>
<path d="M69.1928 15.9669C69.1928 15.9669 86.0824 37.1819 79.0794 70.9612C79.0794 70.9612 90.6138 38.0058 69.1928 15.9669Z" fill="#FFE016"/>
<g style="mix-blend-mode:multiply" opacity="0.5">
<path d="M37.2672 104.74C37.2672 104.74 43.4463 105.976 49.6255 105.358C56.0106 104.74 66.3091 94.2359 66.3091 94.2359C66.3091 94.2359 56.2166 106.594 37.2672 104.74Z" fill="#D42F55"/>
</g>
<g style="mix-blend-mode:multiply" opacity="0.8">
<path d="M41.7986 105.152C28.4105 105.152 15.8462 96.5016 8.22528 83.1135C11.3148 88.0568 20.3776 101.239 41.7986 105.152Z" fill="#D42F55"/>
</g>
<g style="mix-blend-mode:multiply" opacity="0.5">
<path d="M7.81332 82.2897C7.81332 82.4957 8.01929 82.7016 8.22526 82.9076C8.22526 82.7016 8.0193 82.4957 7.81332 82.2897Z" fill="#D42F55"/>
</g>
<g style="mix-blend-mode:multiply" opacity="0.5">
<path d="M95.969 59.0149C93.0854 85.7912 74.754 105.152 54.7748 105.152C34.7956 105.152 52.7151 105.152 51.6852 105.152C68.7808 103.299 79.4913 93.6181 85.4645 87.027C92.4675 79.2001 96.175 56.7492 96.3809 55.1014C96.3809 56.3373 96.3809 57.7791 96.175 59.0149H95.969Z" fill="#D42F55"/>
</g>
<g style="mix-blend-mode:multiply" opacity="0.8">
<path d="M1.84016 36.564C1.84016 36.564 5.13571 22.558 15.6402 12.8773C26.5567 2.99071 46.5359 0.519051 46.5359 0.519051L55.8046 0.107115C55.8046 0.107115 41.7986 -0.0988622 37.8851 0.519051C33.9717 1.13697 10.285 3.19667 1.84016 36.564Z" fill="#D42F55"/>
</g>
<path d="M27.9985 75.0806C27.7926 73.0209 27.9985 71.1672 28.2045 69.7254C29.4403 69.1075 30.4702 68.6955 30.8821 68.6955C31.706 68.6955 32.9418 68.9015 34.5896 69.5194C34.7956 70.1373 35.0016 70.9612 35.2075 71.9911C36.4434 73.0209 37.8852 73.6388 39.3269 73.8448C38.5031 68.9015 38.0911 65.194 37.6792 62.5164C36.0314 62.3104 34.5896 61.8985 33.5597 61.4865C32.3239 61.0746 31.2941 60.4567 30.0582 59.6328C28.8224 58.8089 27.7926 57.779 27.1746 56.1313C26.3508 54.6895 25.9388 52.8357 25.7328 50.776C25.1149 46.2447 25.7328 41.9193 27.7925 38.2118C29.8523 34.2983 32.5299 31.8267 36.0314 31.2088L35.4135 24.2057C35.4135 23.7938 38.709 23.9998 38.709 23.9998L39.9449 31.0028C41.3867 31.0028 43.2404 31.6207 45.0941 32.6506C45.0941 31.0028 45.5061 29.767 46.124 28.9431C46.9479 28.3252 47.7718 27.9132 49.0076 27.7073C50.8613 27.2953 51.6852 28.1192 52.5091 29.1491C52.921 30.1789 53.7449 32.0327 53.9509 35.9461C53.9509 38.6237 53.9509 40.4775 53.7449 41.5073C53.539 42.5372 52.921 43.361 51.8912 43.773C51.2733 44.1849 50.4494 44.3909 49.8315 44.3909C48.3897 44.3909 47.1538 44.3909 46.124 43.567C45.918 42.7432 45.7121 41.9193 45.5061 41.0954C44.4762 40.6834 43.0344 40.2715 41.1807 40.2715C41.7986 44.8029 42.4165 49.1283 42.8285 53.4537C47.1538 53.6596 50.4494 54.6895 52.5091 56.3372C54.5688 57.985 55.8046 60.6626 56.0106 64.5761C56.2166 69.1075 55.1867 73.2269 52.921 76.5224C50.6554 79.818 47.7718 81.4657 44.0643 81.6717V87.8508C43.6523 88.0568 41.1807 88.6747 39.9449 88.6747L40.5628 81.6717C38.709 81.2598 37.0613 80.6418 35.6195 79.406C35.6195 80.4359 35.6195 81.2598 35.4135 81.6717C34.7956 82.0837 33.9717 82.2896 32.7359 82.0836C31.2941 82.0836 30.2642 81.6717 29.8523 81.0538C29.0284 79.406 28.4105 77.3463 27.9985 74.6687V75.0806ZM32.5299 49.1283C32.9418 52.0119 34.1777 53.6596 36.8553 54.0716C36.6493 51.3939 36.4433 47.2745 36.0314 41.7133C33.1478 42.9491 32.118 45.4208 32.5299 49.3342V49.1283ZM43.8583 73.6388C45.0941 73.0209 46.124 71.9911 46.7419 70.9612C47.5658 69.7254 47.7718 68.4896 47.7718 67.2537C47.7718 64.988 46.124 63.5462 43.4464 63.3403C43.4464 66.8418 43.8583 70.3433 43.8583 73.8448V73.6388Z" fill="url(#paint5_linear_5_905)"/>
<path d="M53.3329 64.988C53.127 61.0746 51.8911 58.3969 49.8314 56.7492C49.4195 56.5432 49.0075 56.1313 48.3896 55.9253C46.3299 54.8954 43.4463 54.2775 39.9448 53.8656C39.9448 53.4536 39.9448 52.8357 39.9448 52.4238C39.5329 48.5103 38.915 44.8029 38.297 40.8894C39.9448 40.8894 41.3866 41.0954 42.6224 41.7133C42.6224 42.7431 42.8284 43.567 43.2403 44.1849C44.2702 44.8029 45.506 45.2148 46.9478 45.0088C47.5657 45.0088 48.1837 44.8028 49.0075 44.3909C50.0374 43.979 50.6553 43.3611 50.8613 42.1252C51.0673 41.0954 51.2732 39.2416 50.8613 36.564C50.6553 32.6505 50.2434 30.1789 50.0374 29.149C49.2135 28.3252 47.7717 27.9132 45.918 28.3251C44.6821 28.5311 43.6523 28.9431 43.0344 29.767C42.4165 30.5909 42.2105 31.6207 42.0045 33.4744C40.1508 32.4446 38.297 32.0326 36.8552 31.8267L35.6194 24.8236C33.9716 25.4416 32.9418 26.0595 32.9418 26.4714V32.0326C29.6462 32.8565 26.7627 35.1222 24.9089 39.0357C23.0552 42.7432 22.2313 47.0685 22.8492 51.5999C22.8492 51.5999 22.8492 51.5999 22.8492 51.8059C23.0552 53.8656 23.6731 55.5134 24.497 56.9552C25.3209 58.397 26.3507 59.6328 27.3806 60.4567C28.6164 61.2805 29.8522 61.8984 30.8821 62.3104C32.1179 62.7223 33.3537 62.9283 35.0015 63.3402C35.0015 64.5761 35.4134 66.0179 35.6194 67.6657C35.8254 69.7254 36.2373 71.9911 36.6493 74.4627C35.2075 74.2567 33.7657 73.6388 32.5298 72.6089C32.3239 71.5791 32.1179 70.7552 31.9119 70.1373C30.2642 69.5194 29.0283 69.3134 28.2045 69.3134C27.7925 69.3134 26.9686 69.7254 25.5268 70.3433C25.1149 71.7851 24.9089 73.6388 25.3209 75.6985C25.7328 78.3761 26.3507 80.4359 27.1746 82.0836C27.7925 82.7015 28.8224 83.1135 30.0582 83.1135C31.294 83.1135 32.3239 83.1135 32.7358 82.7016C32.9418 82.2896 33.1478 81.4657 32.9418 80.4359C34.3836 81.6717 36.0314 82.4956 37.8851 82.7016L39.1209 89.2926C40.3567 89.2926 41.1806 89.0867 41.3866 88.8807V82.7016C44.8881 82.2896 47.9777 80.6418 50.2434 77.5523C52.509 74.2567 53.5389 70.3433 53.3329 65.6059V64.988ZM32.7358 53.8656C30.8821 53.2477 29.8522 51.8059 29.6462 49.3342C29.2343 45.6267 30.2642 42.9491 33.1478 41.9193C33.3537 47.2745 33.7657 51.188 33.9716 53.8656C33.9716 54.0716 33.9716 54.2775 33.9716 54.2775C33.5597 54.2775 33.1478 54.2775 32.7358 53.8656ZM44.2702 70.9612C43.4463 72.197 42.6224 73.0209 41.3866 73.6388C41.3866 70.9612 41.1806 68.4896 40.9747 65.8119C40.9747 64.988 40.9747 63.9582 40.9747 63.1343C42.2105 63.1343 43.0344 63.5462 43.8583 64.1642C44.8881 64.7821 45.3001 65.8119 45.506 67.0477C45.506 68.2836 45.3001 69.7254 44.4762 70.9612H44.2702Z" fill="url(#paint6_linear_5_905)"/>
<g style="mix-blend-mode:soft-light">
<path d="M50.6554 41.9194C50.4494 42.9492 49.8315 43.7731 48.8016 44.1851C48.1837 44.597 47.3598 44.803 46.7419 44.803C45.3001 44.803 44.0643 44.803 43.0344 43.9791C42.8284 43.1552 42.6225 42.3313 42.4165 41.5075C41.3867 41.0955 39.9448 40.6835 38.0911 40.6835C38.709 44.597 39.3269 48.5105 39.7389 52.2179C37.6792 52.8359 35.6195 53.2478 33.7657 53.6597C33.5597 50.9821 33.3538 47.0687 32.9418 41.7134C30.0582 42.9492 29.0284 45.4209 29.4403 49.1284C29.6463 51.6 30.6762 53.0418 32.5299 53.6597C28.6164 54.0717 25.1149 53.4538 22.6433 51.3941C22.6433 51.3941 22.6433 51.3941 22.6433 51.1881C22.0254 46.6567 22.6433 42.3313 24.703 38.6238C26.7627 34.7104 29.4403 32.2387 32.9418 31.6208V26.0596C32.9418 25.6477 33.9717 25.0297 35.6195 24.4118L36.8553 31.4148C38.2971 31.4148 40.1508 32.0328 42.0046 33.0626C42.0046 31.4148 42.4165 30.179 43.0344 29.3551C43.8583 28.7372 44.6822 28.3253 45.918 27.9133C47.7718 27.5014 49.2136 27.9134 50.0374 28.7372C50.4494 29.7671 50.6554 32.2387 50.8613 36.1522C50.8613 38.8298 50.8613 40.6835 50.8613 41.7134L50.6554 41.9194Z" fill="white"/>
</g>
<g style="mix-blend-mode:multiply" opacity="0.2">
<path d="M46.7419 61.0747C45.918 62.3105 44.8882 63.3403 43.6524 64.3702C43.0345 63.7523 42.0046 63.5463 40.7688 63.3403C40.7688 64.1642 40.7688 65.1941 40.7688 66.0179C39.121 66.8418 37.2673 67.2538 35.4135 67.4597C35.2075 65.812 35.0016 64.1642 34.7956 63.1344C33.1478 62.9284 31.706 62.5165 30.6762 62.1045C29.4403 61.6926 28.4105 61.0746 27.1747 60.2507C25.9388 59.4269 24.909 58.397 24.2911 56.7492C23.4672 55.3074 23.0552 53.6597 22.6433 51.6C22.6433 51.6 22.6433 51.6 22.6433 51.394C22.6433 51.394 23.0552 53.6597 32.7359 53.8657C33.1478 53.8657 33.5598 53.8657 33.9717 53.8657C36.0314 53.8657 38.0911 53.8657 40.1508 53.8657C43.6524 54.0716 46.536 54.6895 48.5957 55.9254C49.0076 56.9552 48.5957 58.603 46.9479 60.8687L46.7419 61.0747Z" fill="#DA0553"/>
</g>
<path d="M32.5299 72.1971C32.5299 71.5792 36.6493 74.0509 36.6493 74.0509C36.6493 74.0509 32.9418 74.0509 32.5299 72.1971Z" fill="white"/>
<path d="M44.8882 28.3252C43.2404 28.3252 46.7419 36.1521 48.5956 37.5939C50.4494 39.0357 50.6554 30.3849 49.8315 28.9431C49.0076 27.5013 44.8882 28.3252 44.8882 28.3252Z" fill="white"/>
<g style="mix-blend-mode:soft-light">
<path d="M34.3836 25.0297C32.7359 26.2655 36.0314 28.9431 36.0314 28.9431C36.0314 28.9431 36.0314 24.8237 35.2075 24.6177C34.5896 24.4118 34.3836 25.0297 34.3836 25.0297Z" fill="white"/>
</g>
<path d="M80.1092 35.3282C78.8734 29.9729 79.0794 40.0655 80.1092 45.6267C81.345 50.982 81.963 49.5402 81.963 49.5402C81.963 49.5402 81.963 39.0356 79.9033 35.3282H80.1092Z" fill="white"/>
<g style="mix-blend-mode:soft-light">
<path d="M50.8613 105.358C44.4762 105.358 56.6285 102.269 59.3061 100.621C61.9838 98.9733 68.9868 101.033 68.9868 101.033C68.9868 101.033 62.6017 105.77 50.8613 105.358Z" fill="white"/>
</g>
<path d="M79.0794 70.9612C75.9898 70.5493 72.6943 81.0538 74.3421 83.3195C75.9898 85.5852 80.1093 79.2001 80.9331 77.3463C81.757 75.2866 78.8734 71.1672 78.8734 71.1672L79.0794 70.9612Z" fill="#ED4800"/>
<path d="M66.3092 94.236C64.0435 93.824 69.3988 89.7046 70.4286 89.4987C71.4585 89.4987 71.0465 91.5583 70.4286 93.2061C69.6047 94.8539 67.3391 94.4419 66.5152 94.236H66.3092Z" fill="#ED4800"/>
<path d="M66.3091 92.5882C65.6912 93.8241 66.927 94.442 68.7808 94.03C69.3987 94.03 70.0166 93.2061 70.0166 93.2061C70.0166 93.2061 68.1629 95.0599 66.3091 95.2658C64.4554 95.2658 65.0733 93.6181 66.3091 92.5882Z" fill="#FFBA00"/>
<path d="M74.1361 78.7881C74.1361 78.7881 74.1361 80.0239 76.1958 80.0239C78.2555 80.0239 80.9332 77.3463 80.9332 77.3463C80.9332 77.3463 78.4615 83.1135 75.5779 84.3493C72.6943 85.5851 73.7242 80.4359 74.1361 78.5821V78.7881Z" fill="#FFBA00"/>
<g style="mix-blend-mode:multiply" opacity="0.5">
<path d="M75.1659 75.2866C73.9301 80.2299 78.6674 76.5225 79.4913 75.9045C80.3152 75.2866 81.1391 76.3165 81.1391 76.3165C81.1391 76.3165 80.3152 71.3732 79.0794 70.9612C77.6376 70.5493 75.1659 75.2866 75.1659 75.2866Z" fill="#D42F55"/>
</g>
<g style="mix-blend-mode:multiply" opacity="0.5">
<path d="M67.9569 91.1463C67.339 93.0001 68.9867 93.618 70.0166 92.7941C71.0465 92.1762 70.6345 89.2926 70.2226 89.4986C69.8106 89.7045 67.7509 90.9404 67.7509 90.9404L67.9569 91.1463Z" fill="#D42F55"/>
</g>
<path d="M76.4017 83.9373C75.1659 84.1433 77.0196 82.7015 78.0495 81.6717C79.0793 80.6418 77.4316 83.3194 76.4017 83.9373Z" fill="white"/>
<path d="M66.5151 95.4718C66.5151 95.4718 68.3688 94.4419 68.5748 94.4419C68.5748 95.0598 66.5151 95.4718 66.5151 95.4718Z" fill="white"/>
<defs>
<linearGradient id="paint0_linear_5_905" x1="55.5987" y1="105.152" x2="55.5987" y2="0.519005" gradientUnits="userSpaceOnUse">
<stop stop-color="#FF5900"/>
<stop offset="0.2" stop-color="#FE6800"/>
<stop offset="0.7" stop-color="#FA9300"/>
<stop offset="0.8" stop-color="#F66A00"/>
<stop offset="1" stop-color="#F63F00"/>
</linearGradient>
<linearGradient id="paint1_linear_5_905" x1="52.3032" y1="105.77" x2="52.3032" y2="-0.0988634" gradientUnits="userSpaceOnUse">
<stop stop-color="#FF5900"/>
<stop offset="0.2" stop-color="#FE6800"/>
<stop offset="0.7" stop-color="#FA9300"/>
<stop offset="0.8" stop-color="#F66A00"/>
<stop offset="1" stop-color="#F63F00"/>
</linearGradient>
<linearGradient id="paint2_linear_5_905" x1="58.4823" y1="101.033" x2="23.2612" y2="4.4325" gradientUnits="userSpaceOnUse">
<stop stop-color="#FFEA34"/>
<stop offset="0.6" stop-color="#FF8100"/>
<stop offset="0.7" stop-color="#FFA400"/>
<stop offset="1" stop-color="#FFBA00"/>
</linearGradient>
<linearGradient id="paint3_linear_5_905" x1="49.2136" y1="87.233" x2="26.7627" y2="25.6476" gradientUnits="userSpaceOnUse">
<stop stop-color="#FFBA00"/>
<stop offset="0.2" stop-color="#FE6800"/>
<stop offset="1" stop-color="#D41B00"/>
</linearGradient>
<linearGradient id="paint4_linear_5_905" x1="39.533" y1="89.7046" x2="39.533" y2="23.1759" gradientUnits="userSpaceOnUse">
<stop stop-color="#EF6300"/>
<stop offset="1" stop-color="#E13E00"/>
</linearGradient>
<linearGradient id="paint5_linear_5_905" x1="43.0223" y1="88.7354" x2="38.7224" y2="23.9971" gradientUnits="userSpaceOnUse">
<stop stop-color="#C82400"/>
<stop offset="0.5" stop-color="#D84400"/>
<stop offset="1" stop-color="#D42F00"/>
</linearGradient>
<linearGradient id="paint6_linear_5_905" x1="40.1177" y1="88.5155" x2="35.8588" y2="24.3937" gradientUnits="userSpaceOnUse">
<stop stop-color="#FFAB00"/>
<stop offset="0.5" stop-color="#FFBA00"/>
<stop offset="1" stop-color="#EF6C00"/>
</linearGradient>
</defs>
</svg>
