<svg width="102" height="78" viewBox="0 0 102 78" fill="none" xmlns="http://www.w3.org/2000/svg">
<path d="M72.0895 1.29655C52.9341 1.7085 45.7252 25.8071 45.7252 25.8071C45.7252 25.8071 37.2803 1.91447 18.125 1.29655C-1.2363 0.67864 -5.97361 26.425 8.2384 49.4938C20.5967 69.8849 47.1669 77.0939 47.1669 77.0939C47.1669 77.0939 76.0029 69.679 84.6537 49.4938C93.5104 28.8967 91.4507 0.67864 72.2954 1.29655H72.0895Z" fill="url(#paint0_linear_5_544)"/>
<path d="M46.9609 77.094H54.5819L88.5671 2.12048C88.5671 2.12048 76.2088 -1.79298 64.6744 2.94435C53.5519 7.47572 46.9609 21.8937 46.9609 21.8937L33.1608 1.9145C33.1608 1.9145 18.7428 -3.23476 9.06217 3.35632C-0.206536 9.53546 16.0652 52.7894 16.0652 52.7894L46.755 77.3L46.9609 77.094Z" fill="url(#paint1_linear_5_544)"/>
<path d="M93.7164 49.4939C82.388 67.8254 56.4356 76.4761 54.7878 76.8881C54.7878 76.8881 28.0115 68.4433 17.301 49.2879C4.32485 26.6311 10.504 0.472784 29.6593 1.0907C48.8146 1.50264 56.0237 25.6013 56.0237 25.6013C56.0237 25.6013 64.4685 1.70861 83.6238 1.0907C93.0985 0.884726 98.4538 7.4758 100.308 16.5385C102.161 26.2192 99.8955 38.7834 93.5104 49.2879L93.7164 49.4939Z" fill="url(#paint2_linear_5_544)"/>
<path d="M91.0388 27.2489C90.6269 33.0161 88.979 39.6072 85.2715 45.5804C77.4446 58.1446 60.3491 65.3536 54.9939 67.4133C54.376 67.2073 53.3461 66.7954 52.5222 66.3835C45.7252 63.4999 32.337 56.7028 25.9519 45.7863C21.6265 38.3714 20.1847 30.9564 20.5967 24.9832C20.5967 21.2758 21.6265 18.1862 23.0683 15.9205C24.5101 13.4489 26.5699 11.8011 29.2475 11.1831C30.0714 11.1831 30.8952 10.9772 31.9251 10.9772H32.337C41.6058 11.1831 49.8445 24.5713 53.758 32.1922C55.4057 35.2818 56.2297 37.3415 56.2297 37.3415C56.2297 37.3415 67.1461 14.2727 79.5044 11.1831C80.3283 11.1831 81.1522 10.9772 81.7701 10.7712H82.182C85.4775 10.7712 87.7432 12.213 89.391 15.0966C91.0387 17.9802 91.8626 22.5115 91.4507 27.4549L91.0388 27.2489Z" fill="url(#paint3_linear_5_544)"/>
<path d="M80.1222 45.5804C73.3252 56.7028 59.5251 63.4999 52.3161 66.3835C45.519 63.4999 32.131 56.7028 25.7459 45.7864C18.7429 33.6341 19.3608 21.6877 22.6563 15.7145C24.0981 13.2429 26.1578 11.5951 28.8355 10.9772C40.7818 13.8608 50.4624 37.1355 50.4624 37.1355H55.6117C55.6117 37.1355 66.5282 14.0667 78.8864 10.9772C80.9461 11.5951 82.3879 12.8309 83.6237 15.0966C87.1252 21.4817 86.7133 34.6639 79.9163 45.5804H80.1222Z" fill="url(#paint4_linear_5_544)"/>
<g style="mix-blend-mode:multiply" opacity="0.5">
<path d="M91.0388 27.249C90.4209 28.8968 89.5969 30.1326 88.773 30.1326C85.8894 30.1326 85.6835 11.5951 76.2088 15.3026C66.5282 19.0101 55.8176 39.4013 55.8176 39.4013C55.8176 39.4013 52.5221 41.255 51.4923 40.6371C50.4624 40.0192 28.4234 8.50558 20.3906 24.7773C20.3906 21.0698 21.4204 17.9803 22.8622 15.7146C24.304 13.2429 26.3638 11.5951 29.0414 10.9772C29.8653 10.9772 30.6891 10.7713 31.719 10.7713H32.1309C41.3997 10.9773 49.6385 24.3654 53.552 31.9863C55.1998 35.0759 56.0237 37.1356 56.0237 37.1356C56.0237 37.1356 66.9401 14.0668 79.2984 10.9772C80.1223 10.9772 80.9461 10.7713 81.564 10.5653H81.976C85.2715 10.5653 87.5372 12.0071 89.185 14.8907C90.8328 17.7743 91.6566 22.3057 91.2447 27.249H91.0388Z" fill="#9A2E69"/>
</g>
<g style="mix-blend-mode:soft-light">
<path d="M28.8354 50.1119C28.8354 50.1119 45.931 65.3538 53.14 64.7359C60.349 64.118 72.0893 54.8493 78.0625 50.1119C84.2416 45.1686 80.9461 51.1418 80.9461 51.1418C80.9461 51.1418 65.4983 65.9718 54.7878 67.4136C54.7878 67.4136 40.5757 62.8822 28.6294 50.1119H28.8354Z" fill="#FF6EFF"/>
</g>
<g style="mix-blend-mode:soft-light">
<path d="M2.47109 10.5654C0.823317 15.0967 9.26806 10.1534 16.683 5.62208C24.098 1.09071 30.0711 1.29667 30.0711 1.29667C30.0711 1.29667 11.1219 -4.47053 2.47109 10.5654Z" fill="#FF6EFF"/>
</g>
<path d="M10.298 26.6312C10.298 26.6312 11.1218 14.2729 16.683 8.09381C22.2443 1.91468 28.4234 1.50277 28.4234 1.50277C28.4234 1.50277 9.26805 0.678862 10.0919 26.8372L10.298 26.6312Z" fill="#FF5D99"/>
<g style="mix-blend-mode:soft-light">
<path d="M59.1132 6.24005C52.3162 12.4192 72.0894 2.73856 79.9163 1.50273C87.7432 0.266905 67.97 -1.79283 59.1132 6.24005Z" fill="#FF6EFF"/>
</g>
<g style="mix-blend-mode:multiply" opacity="0.5">
<path d="M32.337 70.9149C37.6923 73.3866 47.7848 75.0343 47.7848 75.0343C47.7848 75.0343 25.5399 61.4403 19.3607 52.9955C13.3876 44.5506 7.82641 38.5774 7.2085 48.0521C7.2085 48.0521 15.6533 63.088 32.337 70.9149Z" fill="#9A2E69"/>
</g>
<g style="mix-blend-mode:multiply" opacity="0.5">
<path d="M56.0237 25.8072C56.0237 25.8072 62.2027 13.6549 62.6147 11.1832C63.2326 8.71155 57.8774 8.71158 56.0237 9.74144C54.17 10.5653 51.2863 14.8907 51.2863 14.8907C51.2863 14.8907 54.3759 21.0698 56.0237 25.8072Z" fill="#9A2E69"/>
</g>
<g style="mix-blend-mode:multiply" opacity="0.5">
<path d="M93.7164 49.4939C82.388 67.8253 56.4356 76.4761 54.7878 76.8881C56.2296 76.2701 80.9462 65.7656 91.0388 49.4939C101.131 33.2222 100.513 17.7744 100.513 16.7445C102.367 26.4252 100.101 38.9894 93.7164 49.4939Z" fill="#9A2E69"/>
</g>
<g style="mix-blend-mode:soft-light" opacity="0.5">
<path d="M1.85321 15.0966C2.6771 13.0369 9.68012 12.8309 11.1219 13.0369C12.5637 13.0369 8.44434 26.0131 8.85628 27.6609C9.26823 29.5146 2.67717 30.9564 1.0294 29.5146C-0.618367 28.0728 -0.000529088 19.422 1.85321 15.0966Z" fill="white"/>
</g>
<g style="mix-blend-mode:soft-light">
<path d="M23.8921 2.53249C18.9488 4.5922 10.298 14.6848 12.1517 28.8968C14.0055 43.1088 18.7429 45.9924 21.2145 45.3745C23.6862 44.7566 15.2413 23.3356 23.8921 12.4191C32.5429 1.50261 45.725 17.7744 51.2863 26.2192C56.8475 34.664 57.2595 27.249 69.6177 14.2728C81.976 1.29662 90.6269 14.2728 92.0687 18.5982C93.5105 22.9236 99.0717 16.9504 99.2776 13.037C99.4836 9.12352 86.9194 -2.61684 76.6208 2.73841C66.5282 8.09366 55.8177 26.0132 55.8177 26.0132C55.8177 26.0132 42.6355 -2.41082 23.6862 2.53249H23.8921Z" fill="#FF6EFF"/>
</g>
<path d="M54.3758 67.2074C53.14 66.5895 56.4356 64.5298 58.0834 64.3238C60.1431 64.1179 60.761 64.5298 61.173 64.7357C61.3789 64.9417 57.8773 67.0014 54.3758 67.0014V67.2074Z" fill="white"/>
<path d="M72.9132 2.94448C68.5878 6.85793 83.4178 4.59227 85.8895 2.32659C88.3611 0.0609059 75.7968 0.266852 72.9132 2.94448Z" fill="white"/>
<path d="M17.507 5.62215C17.095 7.68187 23.4801 3.97436 25.5398 2.12062C26.7756 0.884791 18.3308 2.32661 17.507 5.62215Z" fill="white"/>
<path d="M86.3013 40.2251C86.3013 37.5475 88.773 32.6042 90.2148 32.1922C91.6566 31.7803 92.6865 34.6638 91.6567 38.7833C90.6268 42.9027 86.5074 44.3445 86.5074 40.0191L86.3013 40.2251Z" fill="url(#paint5_linear_5_544)"/>
<g style="mix-blend-mode:multiply" opacity="0.5">
<path d="M89.8028 32.6042C88.9789 32.6042 87.5372 37.3416 87.9491 38.5774C88.3611 39.8132 91.0387 39.8132 91.6566 37.5475C92.0685 35.2818 91.6565 32.1922 89.8028 32.6042Z" fill="#9A2E69"/>
</g>
<g style="mix-blend-mode:soft-light">
<path d="M86.7134 40.4311C86.0955 38.1655 89.597 40.0192 90.6269 39.4013C91.6567 38.7834 91.0389 40.0192 91.0389 40.0192C91.0389 40.0192 86.5074 45.9924 86.7134 40.4311Z" fill="#FF6EFF"/>
</g>
<path d="M10.298 30.3386C8.65026 30.7505 9.68004 38.3714 12.1517 38.7834C14.6233 39.4013 15.4473 28.8968 10.298 30.3386Z" fill="url(#paint6_linear_5_544)"/>
<g style="mix-blend-mode:multiply" opacity="0.5">
<path d="M10.092 30.7505C9.06217 31.9863 9.88615 35.4879 10.71 36.3118C11.5339 37.1356 13.7996 35.2819 13.3876 32.6042C12.9757 29.9266 10.504 30.1326 10.092 30.7505Z" fill="#9A2E69"/>
</g>
<g style="mix-blend-mode:soft-light">
<path d="M10.2981 36.9296C10.2981 35.6938 11.5339 37.7535 12.5637 36.3117C13.5936 35.0759 14.0056 34.458 14.0056 34.458C14.0056 34.458 13.7996 37.7535 12.7698 38.5774C11.7399 39.4013 10.2981 36.9296 10.2981 36.9296Z" fill="#FF6EFF"/>
</g>
<path d="M80.3283 29.1028C79.2984 29.1028 78.4745 33.6342 79.7104 34.458C80.9462 35.2819 83.4178 29.3088 80.3283 29.1028Z" fill="url(#paint7_linear_5_544)"/>
<g style="mix-blend-mode:multiply" opacity="0.5">
<path d="M80.1223 29.3086C79.2984 29.9265 79.0924 31.9862 79.5044 32.6041C79.9163 33.222 81.5642 32.6041 81.7701 30.9564C81.9761 29.3086 80.5342 28.8967 80.1223 29.1027V29.3086Z" fill="#9A2E69"/>
</g>
<g style="mix-blend-mode:soft-light">
<path d="M79.0923 33.0163C79.0923 32.3983 79.7103 33.6342 80.5342 33.0163C81.3581 32.3983 81.7701 32.1924 81.7701 32.1924C81.7701 32.1924 80.9462 34.0461 80.3282 34.2521C79.5044 34.4581 79.2984 32.8103 79.2984 32.8103L79.0923 33.0163Z" fill="#FF6EFF"/>
</g>
<defs>
<linearGradient id="paint0_linear_5_544" x1="44.6953" y1="77.0939" x2="44.6953" y2="1.29655" gradientUnits="userSpaceOnUse">
<stop stop-color="#83003B"/>
<stop offset="1" stop-color="#C20040"/>
</linearGradient>
<linearGradient id="paint1_linear_5_544" x1="47.7848" y1="-918.571" x2="47.7848" y2="-0.145177" gradientUnits="userSpaceOnUse">
<stop stop-color="#83003B"/>
<stop offset="1" stop-color="#C20040"/>
</linearGradient>
<linearGradient id="paint2_linear_5_544" x1="55.6117" y1="77.094" x2="55.6117" y2="1.29667" gradientUnits="userSpaceOnUse">
<stop stop-color="#DE004C"/>
<stop offset="1" stop-color="#FF003B"/>
</linearGradient>
<linearGradient id="paint3_linear_5_544" x1="55.6117" y1="67.4133" x2="55.6117" y2="10.5653" gradientUnits="userSpaceOnUse">
<stop stop-color="#F41F4F"/>
<stop offset="0.3" stop-color="#D01146"/>
<stop offset="0.6" stop-color="#B60740"/>
<stop offset="0.8" stop-color="#A6023C"/>
<stop offset="1" stop-color="#A1003B"/>
</linearGradient>
<linearGradient id="paint4_linear_5_544" x1="53.14" y1="66.3835" x2="53.14" y2="10.9772" gradientUnits="userSpaceOnUse">
<stop stop-color="#B80057"/>
<stop offset="1" stop-color="#CE003B"/>
</linearGradient>
<linearGradient id="paint5_linear_5_544" x1="88.1428" y1="43.4094" x2="89.4852" y2="32.7834" gradientUnits="userSpaceOnUse">
<stop stop-color="#DE0057"/>
<stop offset="1" stop-color="#A1003B"/>
</linearGradient>
<linearGradient id="paint6_linear_5_544" x1="11.7398" y1="38.7834" x2="11.7398" y2="30.1326" gradientUnits="userSpaceOnUse">
<stop stop-color="#DE0057"/>
<stop offset="1" stop-color="#A1003B"/>
</linearGradient>
<linearGradient id="paint7_linear_5_544" x1="79.0343" y1="34.8976" x2="80.7159" y2="29.8132" gradientUnits="userSpaceOnUse">
<stop stop-color="#DE0057"/>
<stop offset="1" stop-color="#A1003B"/>
</linearGradient>
</defs>
</svg>
