<svg width="86" height="113" viewBox="0 0 86 113" fill="none" xmlns="http://www.w3.org/2000/svg">
<path d="M30.488 57.2989C30.488 57.2989 6.80135 32.9943 4.74164 25.1674C4.74164 24.7555 4.74164 24.5495 4.74164 24.3435C4.53566 21.048 5.35953 13.839 5.35953 13.839L6.80135 15.8987L31.3119 49.4721L30.9 57.5049L30.488 57.2989Z" fill="url(#paint0_linear_5_3161)"/>
<path d="M59.7359 22.6957C61.7957 17.7524 36.4612 16.9285 30.0761 19.1942C23.8969 21.4599 28.6343 29.0808 28.6343 29.0808L18.7477 19.4002L35.6373 7.0419L71.6823 9.10162L66.327 24.1375L59.7359 22.6957Z" fill="url(#paint1_linear_5_3161)"/>
<path d="M85.2764 14.8687C85.2764 14.8687 84.6584 24.1375 82.8047 29.4927C80.951 34.642 68.7987 46.3823 50.8792 56.269L50.4672 47.0003L85.2764 15.0747L85.2764 14.8687Z" fill="url(#paint2_linear_5_3161)"/>
<path d="M31.9298 51.5317C31.9298 51.1198 31.7238 50.2959 31.1059 49.472C26.7805 43.0869 8.65504 28.8748 5.56548 18.1643C5.15353 16.7225 4.94755 15.2807 5.35949 13.8389C5.77143 11.5733 7.21324 9.51355 10.0968 7.86578C18.7476 2.7165 35.4313 -0.167058 51.0851 0.244889C70.4464 0.656832 88.1599 6.01206 85.0704 17.3405C79.5091 38.1436 49.4373 46.3824 49.6433 49.6779L48.4075 31.7585C48.4075 31.7585 67.3568 20.636 62.2076 15.0748C57.0583 9.51355 26.3686 12.8091 24.7208 18.7823C23.279 24.7555 33.3716 35.26 33.3716 35.26L31.9298 51.9436L31.9298 51.5317Z" fill="url(#paint3_linear_5_3161)"/>
<path d="M27.8104 73.7766C27.8104 73.7766 3.09382 67.8035 2.26994 67.8035C1.44605 67.8035 1.858 83.4573 1.858 83.4573C1.858 83.4573 12.1566 84.6931 12.1566 84.8991C12.1566 85.311 12.1566 87.5767 11.9506 87.9886C11.7446 88.1946 1.65205 86.7528 1.65205 86.7528C1.65205 86.7528 0.622171 99.9349 0.828144 100.553C0.828144 101.171 25.9566 100.553 25.9566 100.553L27.8104 73.7766Z" fill="url(#paint4_linear_5_3161)"/>
<path d="M25.9566 100.553L25.9566 105.29C25.9566 105.29 0.416191 112.705 0.21022 112.293C0.00424961 111.881 0.828141 100.553 0.828141 100.553L25.9566 100.553Z" fill="url(#paint5_linear_5_3161)"/>
<path d="M50.4672 31.1405C50.4672 31.1405 40.7866 25.1673 31.9298 33.4061L27.8104 104.672L51.2911 107.762L50.4672 31.1405Z" fill="url(#paint6_linear_5_3161)"/>
<path d="M52.527 74.1886L52.9389 107.968L25.3388 104.054L27.8104 73.5706C27.8104 73.5706 37.4911 64.5079 52.527 73.9826L52.527 74.1886Z" fill="url(#paint7_linear_5_3161)"/>
<path d="M52.9389 108.174C54.1747 100.553 26.9865 98.0811 25.3387 104.26C24.3089 108.792 51.4971 116.413 52.9389 108.174Z" fill="url(#paint8_linear_5_3161)"/>
<path d="M1.85803 83.4573L1.85803 86.7528C1.85803 86.7528 12.7745 88.6065 13.1864 88.4006C13.5984 88.4006 14.0103 85.311 13.5984 84.6931C13.1864 84.0752 1.85803 83.4573 1.85803 83.4573Z" fill="url(#paint9_linear_5_3161)"/>
<g style="mix-blend-mode:multiply" opacity="0.3">
<path d="M36.2552 30.3165C36.2552 30.3165 31.5178 36.7017 31.1059 52.3555C30.8999 63.066 31.1059 68.2153 31.5179 69.2451C32.1358 70.069 42.0224 65.3317 51.0851 73.3645C51.0851 73.3645 43.0523 66.1555 29.4582 72.3347L30.282 57.0928L22.8671 49.0599C22.8671 49.0599 19.9835 45.1465 20.3954 42.0569C20.8073 38.9674 23.691 42.4689 25.7507 42.8808C27.8104 43.2927 29.4582 30.3165 29.4582 30.3165L31.7238 32.9942C31.7238 32.9942 34.6074 30.7285 36.0492 30.1106L36.2552 30.3165Z" fill="#DE2E69"/>
</g>
<g style="mix-blend-mode:multiply" opacity="0.7">
<path d="M67.7688 38.3495C70.6524 39.9973 63.0315 48.4421 59.324 50.9137C55.6165 53.1794 50.6732 56.063 50.6732 56.063C50.6732 56.063 49.8493 49.266 51.0852 48.0301C52.321 46.7943 67.7688 38.3495 67.7688 38.3495Z" fill="#DE376D"/>
</g>
<g style="mix-blend-mode:multiply" opacity="0.7">
<path d="M4.94761 16.3107C4.94761 16.3107 4.32971 20.2241 10.9208 27.6391C17.7178 35.26 17.0999 38.3495 16.276 39.5854C15.4521 40.6152 7.21331 30.7286 5.77151 27.4331C4.12374 24.1375 4.94761 16.5166 4.94761 16.5166L4.94761 16.3107Z" fill="#DE376D"/>
</g>
<g style="mix-blend-mode:multiply" opacity="0.5">
<path d="M26.1626 73.3646C26.1626 73.3646 21.0133 97.8752 20.3954 99.7289C19.5715 101.583 10.7148 102.819 10.0968 105.084C9.47893 107.35 26.1626 105.084 26.1626 105.084C26.1626 105.084 25.5447 103.848 25.5447 101.583C25.5447 99.317 27.8104 73.5706 27.8104 73.5706L26.1626 73.1587L26.1626 73.3646Z" fill="#DE376D"/>
</g>
<g style="mix-blend-mode:multiply" opacity="0.5">
<path d="M13.1864 88.4006L18.1298 89.0185C18.1298 89.0185 18.9536 82.6334 18.5417 82.2214C18.1298 81.8095 12.7745 84.2811 12.7745 84.2811L4.74164 87.1647L13.1864 88.4006Z" fill="#DE376D"/>
</g>
<path d="M2.2699 67.8033C2.2699 67.8033 -0.819668 84.693 0.210186 112.293L0.828106 100.553L1.65201 86.7527L1.65201 83.4572L2.2699 67.8033Z" fill="#E53751"/>
<g style="mix-blend-mode:soft-light">
<path d="M52.5269 75.6303C52.5269 74.3945 44.906 70.481 41.1985 70.893C37.491 71.3049 38.9328 96.6394 39.5507 98.2871C40.3746 99.9349 48.8194 101.995 51.2911 104.054C53.7627 106.114 52.5269 75.6303 52.5269 75.6303Z" fill="#FFD377"/>
</g>
<g style="mix-blend-mode:soft-light">
<path d="M49.8493 71.3049C50.8791 71.5108 50.6732 33.8181 50.2612 32.1704C49.8493 30.5226 44.2881 29.0808 42.6403 29.4927C41.1985 30.1106 40.5806 65.9496 41.8164 67.5974C43.0522 69.0392 49.8493 71.3049 49.8493 71.3049Z" fill="#FFD377"/>
</g>
<g style="mix-blend-mode:soft-light">
<path d="M52.7329 45.3525C51.909 45.3525 50.8792 31.9643 51.7031 30.3166C52.527 28.6688 63.8554 23.9315 63.6494 17.3404C63.6494 10.7493 41.8165 12.1911 39.7568 10.7493C37.6971 9.30751 37.903 1.68662 38.9329 1.06871C39.7567 0.244819 81.7749 -1.19696 83.6286 14.6628C85.4823 30.7286 54.3807 44.9406 52.9389 45.3525L52.7329 45.3525Z" fill="#FFD377"/>
</g>
<g style="mix-blend-mode:multiply" opacity="0.7">
<path d="M57.4702 13.015C57.4702 13.015 45.112 12.397 41.4045 14.0448C37.697 15.8986 58.0882 18.9881 59.324 20.224C60.7658 21.4598 63.6494 17.9583 62.8255 16.3105C62.0016 14.6627 57.2643 13.015 57.2643 13.015L57.4702 13.015Z" fill="#DE376D"/>
</g>
<g style="mix-blend-mode:multiply" opacity="0.2">
<path d="M40.5806 29.0808C42.4343 29.4928 40.7865 62.4481 40.9925 66.3616C40.9925 70.0691 37.491 68.6273 37.0791 67.3915C36.6671 66.1556 38.9328 31.7584 39.3447 30.5226C39.7567 29.0808 40.3746 29.2868 40.3746 29.2868L40.5806 29.0808Z" fill="#F42774"/>
</g>
<g style="mix-blend-mode:multiply" opacity="0.2">
<path d="M39.1388 71.3048C39.1388 69.863 35.4313 71.3048 34.6075 71.7168C33.7836 72.1287 32.9597 97.8751 33.5776 98.699C34.1955 99.5229 37.903 99.9349 38.5209 99.9349C39.1388 99.9349 38.5209 84.8989 39.1388 71.3048Z" fill="#F42774"/>
</g>
<g style="mix-blend-mode:multiply" opacity="0.2">
<path d="M38.1089 1.06878C37.491 0.656837 31.1059 1.27471 30.282 1.48068C29.2522 1.48068 29.2522 12.6031 30.282 13.0151C31.5178 13.2211 37.0791 12.3972 37.9029 11.7792C38.7268 11.1613 37.9029 1.06878 37.9029 1.06878L38.1089 1.06878Z" fill="#F42774"/>
</g>
<path d="M31.1059 14.2509C31.1059 14.2509 26.5745 17.1344 25.7506 20.018C25.1327 22.9016 28.8402 29.4927 28.8402 29.4927C28.8402 29.4927 24.9267 24.9614 24.1028 20.43C23.279 16.1046 31.1059 14.2509 31.1059 14.2509Z" fill="url(#paint10_linear_5_3161)"/>
<path d="M37.9029 12.6031C37.9029 12.6031 51.4971 10.7493 58.0881 11.9851C65.0912 13.221 63.6494 17.3404 62.4135 19.1941C62.4135 19.1941 63.4434 17.1345 60.9717 14.6628C58.5001 11.9852 37.9029 12.6031 37.9029 12.6031Z" fill="url(#paint11_linear_5_3161)"/>
<path d="M84.6584 11.7792C84.6584 11.7792 86.1003 20.43 74.9778 31.1405C64.2673 41.2331 53.3508 46.3824 53.3508 46.3824C53.3508 46.3824 68.1808 39.1733 75.5957 32.3763C83.0107 25.3733 86.5122 17.1344 84.8644 11.9851L84.6584 11.7792Z" fill="url(#paint12_linear_5_3161)"/>
<path d="M78.8913 28.4629C80.539 25.9913 72.5061 24.9614 66.9449 29.4928C61.3837 33.8182 64.8852 39.3794 65.5031 39.3794C66.121 39.3794 76.4196 31.9644 78.8913 28.4629Z" fill="white"/>
<path d="M25.1327 17.5464C24.7208 15.8986 22.4551 18.3703 21.8372 20.224C21.2193 22.0777 24.3089 24.3434 25.3387 24.3434C26.3686 24.3434 25.3387 18.7822 25.1327 17.5464Z" fill="white"/>
<path d="M50.2612 48.2361C49.4374 40.8211 45.7299 51.3256 45.7299 59.5645C45.7299 67.8033 48.6135 71.0989 49.6433 71.3048C50.6732 71.5108 50.2612 48.2361 50.2612 48.2361Z" fill="white"/>
<g style="mix-blend-mode:multiply" opacity="0.7">
<path d="M29.6641 72.5407L29.6641 70.069C29.6641 70.069 42.6403 64.7137 51.2911 73.3645C51.2911 73.3645 40.9925 66.7735 29.6641 72.3347L29.6641 72.5407Z" fill="#DE376D"/>
</g>
<path d="M52.5269 74.1885C52.5269 74.1885 38.3149 67.5973 27.8104 73.7765C27.8104 73.7765 38.9328 65.1257 52.5269 74.1885Z" fill="url(#paint13_linear_5_3161)"/>
<path d="M48.4075 103.024C48.4075 103.024 38.109 96.2274 29.8701 100.965C29.8701 100.965 39.3448 100.141 48.4075 103.024Z" fill="url(#paint14_linear_5_3161)"/>
<g style="mix-blend-mode:soft-light">
<path d="M6.18348 82.0153C1.85808 81.3974 1.85806 69.2451 3.29986 68.8332C4.53569 68.4212 20.8074 71.5108 22.8671 73.5705C24.9268 75.4243 15.2462 83.4571 12.9805 83.8691C10.7148 84.281 6.38943 82.2213 6.38943 82.2213L6.18348 82.0153Z" fill="#FFD377"/>
</g>
<g style="mix-blend-mode:soft-light">
<path d="M20.1895 92.314C20.1895 90.6663 2.26998 87.1648 1.65206 87.9886C1.03415 88.8125 1.65206 98.4932 2.064 99.1111C2.68191 99.729 17.7178 100.141 19.1596 99.729C20.6014 99.3171 20.1895 92.314 20.1895 92.314Z" fill="#FFD377"/>
</g>
<g style="mix-blend-mode:multiply" opacity="0.7">
<path d="M40.5806 101.377C34.8134 100.965 31.106 105.908 30.4881 107.144C29.8702 108.38 47.1717 113.529 51.0852 109.616C54.9986 105.496 45.524 101.789 40.5806 101.377Z" fill="#DE376D"/>
</g>
<g style="mix-blend-mode:multiply" opacity="0.7">
<path d="M4.74164 24.9614C4.74164 24.5495 4.74164 24.3434 4.74164 24.1375C4.53566 20.8419 5.35952 13.633 5.35952 13.633C5.77147 11.3673 7.21327 9.30755 10.0969 7.65978C18.7477 2.5105 35.4313 -0.373056 51.0852 0.0388868L51.2911 0.0388869C51.2911 0.24486 23.485 1.06873 12.3626 8.07175C6.18343 11.9852 5.77148 17.3404 5.56551 18.1643C4.53565 21.0479 4.53566 23.7255 4.74164 25.1673L4.74164 24.9614Z" fill="#DE376D"/>
</g>
<path d="M51.909 94.1677C51.2911 91.49 49.4373 94.9915 48.6134 97.4632C47.7895 99.9348 49.4373 103.024 51.0851 103.23C52.7329 103.23 51.909 94.1677 51.909 94.1677Z" fill="white"/>
<path d="M16.482 71.5109C21.2194 73.7766 10.9208 73.7766 9.06706 71.099C7.21332 68.4213 13.3925 70.0691 16.482 71.5109Z" fill="white"/>
<g style="mix-blend-mode:multiply" opacity="0.7">
<path d="M30.8999 49.472C30.8999 49.472 27.8104 47.0003 25.3387 48.0302C22.8671 49.266 30.488 57.2989 30.488 57.2989L30.8999 49.472Z" fill="#DE376D"/>
</g>
<g style="mix-blend-mode:multiply" opacity="0.7">
<path d="M31.9298 33.4061L35.8433 31.1405C35.8433 31.1405 32.3418 38.1435 30.9 50.5017L31.9298 33.4061Z" fill="#DE376D"/>
</g>
<path d="M49.6433 30.5226L47.1717 29.4927C47.1717 29.4927 50.8792 36.7017 50.2612 48.0301C50.2612 48.0301 50.4672 33.8181 49.6433 30.3166L49.6433 30.5226Z" fill="white"/>
<path d="M83.6285 21.0479C83.6285 20.2241 80.5389 28.257 80.127 29.0809C79.921 29.9048 81.5688 29.6988 81.5688 29.6988C81.5688 29.6988 84.0405 25.3733 83.4226 21.0479L83.6285 21.0479Z" fill="white"/>
<path d="M32.7536 69.2452C32.7536 69.2452 41.1985 67.3915 46.9657 70.4811C46.9657 70.4811 41.4044 65.5377 32.7536 69.2452Z" fill="url(#paint15_linear_5_3161)"/>
<defs>
<linearGradient id="paint0_linear_5_3161" x1="3.67181" y1="34.7542" x2="31.6429" y2="36.2691" gradientUnits="userSpaceOnUse">
<stop stop-color="#FF6A03"/>
<stop offset="0.9" stop-color="#FF3F00"/>
</linearGradient>
<linearGradient id="paint1_linear_5_3161" x1="18.6487" y1="17.207" x2="70.8888" y2="20.0362" gradientUnits="userSpaceOnUse">
<stop stop-color="#FFFF04"/>
<stop offset="0.3" stop-color="#FF6A03"/>
<stop offset="0.9" stop-color="#FF3F00"/>
</linearGradient>
<linearGradient id="paint2_linear_5_3161" x1="51.1318" y1="34.4366" x2="84.0389" y2="36.2188" gradientUnits="userSpaceOnUse">
<stop stop-color="#FF3F00"/>
<stop offset="0.7" stop-color="#FF6A03"/>
<stop offset="1" stop-color="#FFFF04"/>
</linearGradient>
<linearGradient id="paint3_linear_5_3161" x1="4.47891" y1="23.6592" x2="84.4845" y2="27.9921" gradientUnits="userSpaceOnUse">
<stop stop-color="#FFA200"/>
<stop offset="1" stop-color="#FFB82F"/>
</linearGradient>
<linearGradient id="paint4_linear_5_3161" x1="0.998484" y1="84.115" x2="27.1186" y2="85.5296" gradientUnits="userSpaceOnUse">
<stop stop-color="#FFB82F"/>
<stop offset="1" stop-color="#FFA200"/>
</linearGradient>
<linearGradient id="paint5_linear_5_3161" x1="0.457061" y1="105.538" x2="25.9601" y2="106.919" gradientUnits="userSpaceOnUse">
<stop stop-color="#FF6A03"/>
<stop offset="0.9" stop-color="#FF3F00"/>
</linearGradient>
<linearGradient id="paint6_linear_5_3161" x1="29.7553" y1="67.314" x2="53.4073" y2="68.5949" gradientUnits="userSpaceOnUse">
<stop stop-color="#FFA200"/>
<stop offset="1" stop-color="#FFB82F"/>
</linearGradient>
<linearGradient id="paint7_linear_5_3161" x1="26.1623" y1="87.953" x2="53.9277" y2="89.4568" gradientUnits="userSpaceOnUse">
<stop stop-color="#FFA200"/>
<stop offset="1" stop-color="#FFB82F"/>
</linearGradient>
<linearGradient id="paint8_linear_5_3161" x1="25.2154" y1="105.435" x2="52.9808" y2="106.939" gradientUnits="userSpaceOnUse">
<stop stop-color="#FF3F00"/>
<stop offset="1" stop-color="#FF6A03"/>
</linearGradient>
<linearGradient id="paint9_linear_5_3161" x1="1.74322" y1="85.5992" x2="13.6721" y2="86.2453" gradientUnits="userSpaceOnUse">
<stop stop-color="#FF6A03"/>
<stop offset="0.9" stop-color="#FF3F00"/>
</linearGradient>
<linearGradient id="paint10_linear_5_3161" x1="23.9789" y1="21.6211" x2="30.5603" y2="21.9775" gradientUnits="userSpaceOnUse">
<stop stop-color="#FFDE00"/>
<stop offset="1" stop-color="#FFE834"/>
</linearGradient>
<linearGradient id="paint11_linear_5_3161" x1="37.7819" y1="14.3239" x2="63.4906" y2="15.7163" gradientUnits="userSpaceOnUse">
<stop stop-color="#FFDE00"/>
<stop offset="1" stop-color="#FFE834"/>
</linearGradient>
<linearGradient id="paint12_linear_5_3161" x1="54.1397" y1="28.4113" x2="84.1675" y2="30.0376" gradientUnits="userSpaceOnUse">
<stop stop-color="#FFDE00"/>
<stop offset="1" stop-color="#FFE834"/>
</linearGradient>
<linearGradient id="paint13_linear_5_3161" x1="27.876" y1="71.5439" x2="52.5564" y2="72.8806" gradientUnits="userSpaceOnUse">
<stop stop-color="#FFDE00"/>
<stop offset="1" stop-color="#FFE834"/>
</linearGradient>
<linearGradient id="paint14_linear_5_3161" x1="29.813" y1="100.527" x2="48.3233" y2="101.53" gradientUnits="userSpaceOnUse">
<stop stop-color="#FFDE00"/>
<stop offset="1" stop-color="#FFE834"/>
</linearGradient>
<linearGradient id="paint15_linear_5_3161" x1="39.833" y1="67.8598" x2="39.7216" y2="69.9165" gradientUnits="userSpaceOnUse">
<stop stop-color="#FFDE00"/>
<stop offset="1" stop-color="#FFE834"/>
</linearGradient>
</defs>
</svg>
