<svg width="252" height="161" viewBox="0 0 252 161" fill="none" xmlns="http://www.w3.org/2000/svg">
<mask id="path-1-outside-1_58_687" maskUnits="userSpaceOnUse" x="21.3105" y="56.1973" width="206" height="68" fill="black">
<rect fill="white" x="21.3105" y="56.1973" width="206" height="68"/>
<path d="M221.845 64.124L226.021 93.6885C225.937 93.716 225.851 93.7421 225.765 93.7705C225.932 94.3949 226.021 95.0246 226.021 95.6602C226.02 110.325 180.642 122.214 124.665 122.214C68.6886 122.214 23.311 110.325 23.3105 95.6602C23.3105 95.0228 23.3969 94.3908 23.5654 93.7646C23.4791 93.7383 23.3938 93.714 23.3105 93.6885L28.6211 64.7354L41.8994 58.1973L128.49 68.6387L208.783 58.1973L221.845 64.124Z"/>
</mask>
<path d="M221.845 64.124L226.021 93.6885C225.937 93.716 225.851 93.7421 225.765 93.7705C225.932 94.3949 226.021 95.0246 226.021 95.6602C226.02 110.325 180.642 122.214 124.665 122.214C68.6886 122.214 23.311 110.325 23.3105 95.6602C23.3105 95.0228 23.3969 94.3908 23.5654 93.7646C23.4791 93.7383 23.3938 93.714 23.3105 93.6885L28.6211 64.7354L41.8994 58.1973L128.49 68.6387L208.783 58.1973L221.845 64.124Z" fill="#AB1C34"/>
<path d="M221.845 64.124L222.835 63.9842L222.758 63.4403L222.258 63.2134L221.845 64.124ZM226.021 93.6885L226.335 94.6379L227.127 94.3756L227.011 93.5486L226.021 93.6885ZM225.765 93.7705L225.453 92.8204L224.553 93.1157L224.799 94.0298L225.765 93.7705ZM226.021 95.6602L227.021 95.6602V95.6602H226.021ZM124.665 122.214L124.665 123.214H124.665V122.214ZM23.3105 95.6602L22.3105 95.6602L22.3105 95.6602L23.3105 95.6602ZM23.5654 93.7646L24.531 94.0246L24.7826 93.0901L23.8569 92.8081L23.5654 93.7646ZM23.3105 93.6885L22.327 93.5081L22.1664 94.3835L23.0173 94.6445L23.3105 93.6885ZM28.6211 64.7354L28.1794 63.8382L27.7282 64.0603L27.6375 64.5549L28.6211 64.7354ZM41.8994 58.1973L42.0191 57.2045L41.7242 57.1689L41.4577 57.3001L41.8994 58.1973ZM128.49 68.6387L128.371 69.6315L128.495 69.6465L128.619 69.6303L128.49 68.6387ZM208.783 58.1973L209.196 57.2866L208.937 57.1689L208.654 57.2056L208.783 58.1973ZM221.845 64.124L220.855 64.2639L225.03 93.8283L226.021 93.6885L227.011 93.5486L222.835 63.9842L221.845 64.124ZM226.021 93.6885L225.706 92.7391C225.672 92.7505 225.636 92.7619 225.592 92.7757C225.551 92.7888 225.502 92.8041 225.453 92.8204L225.765 93.7705L226.077 94.7206C226.114 94.7084 226.151 94.6965 226.195 94.6826C226.237 94.6694 226.286 94.6541 226.335 94.6379L226.021 93.6885ZM225.765 93.7705L224.799 94.0298C224.945 94.5757 225.021 95.1183 225.021 95.6602H226.021H227.021C227.021 94.931 226.919 94.2141 226.73 93.5112L225.765 93.7705ZM226.021 95.6602L225.021 95.6601C225.02 98.7775 222.591 102.01 217.529 105.146C212.52 108.248 205.207 111.078 196.08 113.469C177.843 118.247 152.593 121.214 124.665 121.214V122.214V123.214C152.713 123.214 178.141 120.236 196.587 115.404C205.803 112.989 213.332 110.098 218.582 106.846C223.777 103.628 227.02 99.8754 227.021 95.6602L226.021 95.6602ZM124.665 122.214L124.665 121.214C96.7368 121.214 71.4875 118.247 53.2502 113.469C44.1241 111.078 36.8106 108.248 31.8023 105.146C26.7396 102.01 24.3106 98.7775 24.3105 95.6601L23.3105 95.6602L22.3105 95.6602C22.3107 99.8754 25.5541 103.628 30.7491 106.846C35.9985 110.098 43.5279 112.989 52.7433 115.404C71.1891 120.236 96.6168 123.214 124.665 123.214L124.665 122.214ZM23.3105 95.6602H24.3105C24.3105 95.1142 24.3844 94.5695 24.531 94.0246L23.5654 93.7646L22.5998 93.5047C22.4094 94.212 22.3105 94.9314 22.3105 95.6602H23.3105ZM23.5654 93.7646L23.8569 92.8081C23.6993 92.7601 23.7343 92.7725 23.6038 92.7324L23.3105 93.6885L23.0173 94.6445C23.0533 94.6556 23.2589 94.7166 23.274 94.7212L23.5654 93.7646ZM23.3105 93.6885L24.2941 93.8689L29.6047 64.9158L28.6211 64.7354L27.6375 64.5549L22.327 93.5081L23.3105 93.6885ZM28.6211 64.7354L29.0628 65.6325L42.3412 59.0944L41.8994 58.1973L41.4577 57.3001L28.1794 63.8382L28.6211 64.7354ZM41.8994 58.1973L41.7797 59.1901L128.371 69.6315L128.49 68.6387L128.61 67.6459L42.0191 57.2045L41.8994 58.1973ZM128.49 68.6387L128.619 69.6303L208.912 59.1889L208.783 58.1973L208.654 57.2056L128.361 67.647L128.49 68.6387ZM208.783 58.1973L208.37 59.1079L221.432 65.0347L221.845 64.124L222.258 63.2134L209.196 57.2866L208.783 58.1973Z" fill="#341D1A" mask="url(#path-1-outside-1_58_687)"/>
<mask id="path-3-outside-2_58_687" maskUnits="userSpaceOnUse" x="27.3262" y="0" width="196" height="91" fill="black">
<rect fill="white" x="27.3262" width="196" height="91"/>
<path d="M124.327 1.00429C144.883 0.912002 180.357 2.2717 193.534 8.53554C208.027 15.4255 218.495 48.533 221.917 64.226C221.859 64.3065 221.789 64.3866 221.711 64.4701C221.847 64.9854 221.917 65.505 221.917 66.0287C221.917 79.1432 178.581 89.7748 125.122 89.7748C71.6634 89.7748 28.3262 79.1432 28.3262 66.0287C28.3262 65.1537 28.5205 64.2903 28.8965 63.4398C32.416 47.4538 42.5645 15.3124 56.5303 8.53554C69.4389 2.27198 104.189 0.912138 124.327 1.00429Z"/>
</mask>
<path d="M124.327 1.00429C144.883 0.912002 180.357 2.2717 193.534 8.53554C208.027 15.4255 218.495 48.533 221.917 64.226C221.859 64.3065 221.789 64.3866 221.711 64.4701C221.847 64.9854 221.917 65.505 221.917 66.0287C221.917 79.1432 178.581 89.7748 125.122 89.7748C71.6634 89.7748 28.3262 79.1432 28.3262 66.0287C28.3262 65.1537 28.5205 64.2903 28.8965 63.4398C32.416 47.4538 42.5645 15.3124 56.5303 8.53554C69.4389 2.27198 104.189 0.912138 124.327 1.00429Z" fill="#F7405E"/>
<path d="M124.327 1.00429L124.323 2.00433L124.332 2.00428L124.327 1.00429ZM193.534 8.53554L193.964 7.6324L193.963 7.63239L193.534 8.53554ZM221.917 64.226L222.73 64.8089L222.989 64.4475L222.894 64.0129L221.917 64.226ZM221.711 64.4701L220.98 63.7877L220.603 64.1915L220.744 64.7256L221.711 64.4701ZM221.917 66.0287L222.917 66.0287L222.917 66.0286L221.917 66.0287ZM125.122 89.7748L125.122 90.7748L125.122 90.7748L125.122 89.7748ZM28.3262 66.0287L27.3262 66.0286V66.0287H28.3262ZM28.8965 63.4398L29.8111 63.8442L29.8516 63.7526L29.8731 63.6549L28.8965 63.4398ZM56.5303 8.53554L56.0937 7.63586L56.0937 7.63587L56.5303 8.53554ZM124.327 1.00429L124.332 2.00428C134.59 1.95823 148.566 2.27466 161.613 3.38278C168.137 3.93686 174.414 4.68777 179.872 5.6869C185.345 6.68889 189.93 7.92964 193.105 9.4387L193.534 8.53554L193.963 7.63239C190.549 6.00952 185.759 4.73137 180.232 3.7196C174.69 2.70496 168.344 1.94724 161.782 1.38995C148.659 0.275334 134.62 -0.0419294 124.323 0.00430493L124.327 1.00429ZM193.534 8.53554L193.105 9.43869C196.507 11.0559 199.758 14.2606 202.787 18.5169C205.807 22.7595 208.549 27.9675 210.961 33.4804C215.785 44.5066 219.239 56.6412 220.94 64.439L221.917 64.226L222.894 64.0129C221.172 56.1177 217.682 43.8521 212.793 32.6788C210.349 27.092 207.543 21.7504 204.417 17.3572C201.3 12.9776 197.808 9.46012 193.964 7.6324L193.534 8.53554ZM221.917 64.226L221.104 63.643C221.084 63.671 221.049 63.714 220.98 63.7877L221.711 64.4701L222.442 65.1525C222.529 65.0591 222.634 64.9421 222.73 64.8089L221.917 64.226ZM221.711 64.4701L220.744 64.7256C220.859 65.1612 220.917 65.5949 220.917 66.0288L221.917 66.0287L222.917 66.0286C222.917 65.415 222.835 64.8096 222.678 64.2146L221.711 64.4701ZM221.917 66.0287H220.917C220.917 68.7262 218.661 71.5921 213.809 74.4067C209.029 77.1792 202.045 79.71 193.328 81.8485C175.91 86.1215 151.795 88.7748 125.122 88.7748L125.122 89.7748L125.122 90.7748C151.907 90.7748 176.19 88.1122 193.805 83.7909C202.604 81.6321 209.796 79.0461 214.812 76.1367C219.756 73.2694 222.917 69.8885 222.917 66.0287H221.917ZM125.122 89.7748V88.7748C98.4487 88.7748 74.3335 86.1216 56.9154 81.8485C48.1985 79.7101 41.2149 77.1792 36.4346 74.4067C31.582 71.5921 29.3262 68.7262 29.3262 66.0287H28.3262H27.3262C27.3262 69.8885 30.4875 73.2694 35.4312 76.1368C40.4472 79.0461 47.6391 81.6321 56.4389 83.7909C74.054 88.1123 98.3367 90.7748 125.122 90.7748V89.7748ZM28.3262 66.0287L29.3262 66.0288C29.3262 65.306 29.4859 64.5798 29.8111 63.8442L28.8965 63.4398L27.9819 63.0355C27.5551 64.0008 27.3263 65.0014 27.3262 66.0286L28.3262 66.0287ZM28.8965 63.4398L29.8731 63.6549C31.6228 55.7074 35.0224 43.7399 39.7134 32.9324C42.0589 27.5286 44.7155 22.4424 47.6331 18.3012C50.5604 14.1463 53.6947 11.023 56.9668 9.43522L56.5303 8.53554L56.0937 7.63587C52.383 9.4365 49.0115 12.8722 45.9981 17.1493C42.9751 21.4402 40.256 26.6592 37.8787 32.1361C33.1242 43.09 29.6897 55.1862 27.9199 63.2248L28.8965 63.4398ZM56.5303 8.53554L56.9668 9.43523C60.0729 7.92809 64.5609 6.68809 69.9212 5.68637C75.2658 4.68757 81.4141 3.93681 87.8041 3.38279C100.583 2.27479 114.273 1.9583 124.323 2.00428L124.327 1.00429L124.332 0.00430532C114.243 -0.0418647 100.489 0.275488 87.6313 1.39026C81.2028 1.94763 74.9847 2.70548 69.5538 3.7204C64.1385 4.7324 59.442 6.01122 56.0937 7.63586L56.5303 8.53554Z" fill="#341D1A" mask="url(#path-3-outside-2_58_687)"/>
<path d="M123.928 1.00342C144.55 0.909985 180.166 2.26953 193.394 8.53565C202.565 12.8808 210.127 27.6554 215.324 41.9116C187.29 37.9258 157.431 35.7739 126.451 35.7739C94.5189 35.7739 63.7779 38.0594 34.9982 42.2837C40.0519 27.9134 47.449 12.9189 56.4376 8.53565C69.2884 2.26968 103.891 0.910112 123.928 1.00342Z" fill="#F7405E"/>
<g filter="url(#filter0_i_58_687)">
<path d="M185.153 58.6665L163.318 48.6255L165.827 60.2856H150.483L147.386 24.3345L165.827 36.6421L164.352 22.7153H177.039L185.153 58.6665ZM113.453 23.3628C121.42 23.2009 130.272 25.3068 127.469 36.8042C125.226 46.0023 114.437 50.2455 109.322 51.2173L107.404 59.4761H97.5195L101.06 25.3062C102.535 24.7123 107.08 23.4923 113.453 23.3628ZM142.812 58.6665L130.419 59.4761L129.682 24.0103H142.812V58.6665ZM79.2256 25.9536C85.5989 21.5489 94.0771 22.7155 97.5195 23.8491L92.9463 32.27C91.6675 31.4603 88.2244 30.0021 84.6836 30.6499C80.2578 31.4596 82.0284 33.727 89.9951 36.48C97.9619 39.233 97.5193 48.7881 89.1094 55.9136C82.3814 61.6135 70.2741 58.9365 65.0615 56.8853L70.9629 45.5493C72.6349 46.5749 76.8056 48.4321 80.1104 47.6548C84.2412 46.6831 79.226 43.7673 74.3574 41.1763C69.4888 38.5852 71.2588 31.4597 79.2256 25.9536ZM109.765 39.0708C111.24 39.1787 114.456 38.7467 115.519 36.1558C116.58 33.5653 112.715 32.9175 110.649 32.9175L109.765 39.0708Z" fill="#FEFEFF"/>
</g>
<defs>
<filter id="filter0_i_58_687" x="65.0615" y="22.7153" width="120.092" height="37.5703" filterUnits="userSpaceOnUse" color-interpolation-filters="sRGB">
<feFlood flood-opacity="0" result="BackgroundImageFix"/>
<feBlend mode="normal" in="SourceGraphic" in2="BackgroundImageFix" result="shape"/>
<feColorMatrix in="SourceAlpha" type="matrix" values="0 0 0 0 0 0 0 0 0 0 0 0 0 0 0 0 0 0 127 0" result="hardAlpha"/>
<feOffset dy="-1"/>
<feComposite in2="hardAlpha" operator="arithmetic" k2="-1" k3="1"/>
<feColorMatrix type="matrix" values="0 0 0 0 0 0 0 0 0 0 0 0 0 0 0 0 0 0 0.25 0"/>
<feBlend mode="normal" in2="shape" result="effect1_innerShadow_58_687"/>
</filter>
</defs>
</svg>
