<svg width="252" height="161" viewBox="0 0 252 161" fill="none" xmlns="http://www.w3.org/2000/svg">
<path fill-rule="evenodd" clip-rule="evenodd" d="M7.77729 85.6677L1.43051 118.456L1.47506 118.473C1.27958 119.356 1.18024 120.248 1.18024 121.147C1.18024 142.442 56.9287 159.704 125.698 159.704C194.467 159.704 250.216 142.442 250.216 121.147C250.216 120.347 250.137 119.553 249.982 118.765L244.86 86.7967L244.734 86.6376C244.599 87.4515 244.421 88.2312 244.204 88.9782C240.208 108.032 188.898 123.105 126.188 123.105C60.8715 123.105 7.92196 106.753 7.92196 86.5822C7.92196 86.3561 7.92861 86.1306 7.94185 85.9055C7.8811 85.8248 7.8262 85.7455 7.77729 85.6677ZM8.22044 83.3923L8.21702 83.3959L8.1505 83.7396C8.17361 83.6244 8.19692 83.5086 8.22044 83.3923Z" fill="#5E6D84"/>
<path fill-rule="evenodd" clip-rule="evenodd" d="M0.0562353 119.323L7.19242 82.4558L7.27708 82.5905L9.03431 77.2825L8.7488 78.145L8.61902 79.4788L8.26467 80.8048L8.61902 80.0963L9.32354 78.145L8.8625 80.7036V82.4558V83.1327C8.95304 84.489 8.79457 84.1813 8.8625 84.5497V85.2987L9.03431 85.9055C9.0227 86.1028 9.10225 86.384 9.10225 86.5822C9.10225 90.958 11.9851 95.4233 17.8696 99.7198C23.7092 103.984 32.2371 107.874 42.8809 111.161C64.1522 117.73 93.6061 121.809 126.188 121.809C157.468 121.809 185.868 118.049 206.912 111.934C217.439 108.876 226.074 105.242 232.299 101.232C238.572 97.1901 242.167 92.9155 243.053 88.6875L243.064 88.635L243.079 88.5837C243.281 87.891 243.447 87.1654 243.573 86.4049L243.864 84.5295V81.7764L245.966 86.2193L251.141 118.517C251.31 119.384 251.396 120.262 251.396 121.147C251.396 127.136 247.487 132.546 241.085 137.233C234.639 141.952 225.39 146.152 214.066 149.658C191.401 156.676 160.159 161 125.698 161C91.2368 161 59.9944 156.676 37.3302 149.658C26.0062 146.152 16.7566 141.952 10.3106 137.233C3.90884 132.546 0 127.136 0 121.147C0 120.543 0.0402154 119.942 0.119495 119.346L0.0562353 119.323ZM1.47509 118.473C1.27961 119.356 1.18026 120.248 1.18026 121.147C1.18026 142.442 56.9287 159.704 125.698 159.704C194.467 159.704 250.216 142.442 250.216 121.147C250.216 120.347 250.137 119.553 249.982 118.765L244.86 86.7967L244.734 86.6376C244.724 86.701 244.713 86.7642 244.702 86.8272C244.693 86.8754 244.685 86.9235 244.676 86.9715C244.549 87.6653 244.391 88.3339 244.204 88.9781C244.169 89.1424 244.131 89.3064 244.09 89.4701C239.322 108.291 188.357 123.105 126.188 123.105C63.9235 123.105 12.8973 108.246 8.26467 89.3835C8.03759 88.4589 7.92198 87.5247 7.92198 86.5822C7.92198 86.3561 7.92863 86.1305 7.94188 85.9055C7.88112 85.8248 7.82623 85.7455 7.77731 85.6677L1.43054 118.456L1.47509 118.473Z" fill="#341D1A"/>
<path d="M124.527 0.505859C137.236 0.441628 154.565 0.876866 170.761 2.40723C178.859 3.17243 186.681 4.21262 193.503 5.60254C200.317 6.99085 206.168 8.73469 210.304 10.9229C214.89 13.3499 219.091 17.9515 222.874 23.7646C226.662 29.5861 230.06 36.6677 233.023 44.1123C238.949 59.0018 243.158 75.4004 245.276 86.2148L245.293 86.2998L245.28 86.3857C245.139 87.3259 244.941 88.2236 244.693 89.0811L244.587 89.5449C243.396 94.3273 239.361 98.779 233.167 102.77C226.76 106.898 217.962 110.585 207.354 113.667C186.132 119.833 157.578 123.604 126.188 123.604C93.494 123.604 63.8757 119.513 42.4141 112.886C31.6863 109.573 22.9679 105.617 16.921 101.202C10.8848 96.7949 7.42194 91.8605 7.42194 86.582C7.42194 86.4043 7.42775 86.2269 7.43561 86.0498C7.4074 86.0086 7.37648 85.97 7.35065 85.9287L7.24615 85.7617L7.28326 85.5693C9.34158 74.7552 13.4098 58.5192 19.1456 43.792C22.0134 36.4286 25.3033 29.4285 28.9756 23.668C32.6427 17.9158 36.7193 13.3539 41.1778 10.9258C45.1983 8.73621 50.8851 6.99106 57.5069 5.60254C64.1367 4.21235 71.738 3.17249 79.6065 2.40723C95.3423 0.876841 112.18 0.441669 124.527 0.505859ZM122.424 12.4834L122.419 12.4844V12.4834C111.833 12.4337 97.2255 12.7706 83.5723 13.9531C76.7458 14.5444 70.1648 15.3469 64.4473 16.416C58.7214 17.4868 53.8941 18.8199 50.5577 20.459C47.3025 22.0583 44.4251 24.9184 41.8682 28.6328C39.3129 32.3449 37.0973 36.8821 35.1534 41.792C31.2682 51.605 28.4958 62.8399 26.2647 71.8311C25.772 74.9462 25.6837 78.9955 25.6837 80.5186C25.6837 80.7866 25.6981 81.054 25.7266 81.3203L25.7344 81.3994L25.7188 81.4678L25.7471 81.5029L25.7667 81.6348C26.2962 85.1824 29.1482 88.5159 34.1592 91.5273C39.1562 94.5303 46.2067 97.1548 54.9346 99.3164C72.3854 103.638 96.4352 106.087 123.894 106.087C151.347 106.087 175.954 103.082 193.964 98.2031C202.971 95.7631 210.304 92.86 215.514 89.6465C220.743 86.4209 223.73 82.947 224.258 79.4014L224.277 79.2656L224.301 79.2354L224.288 79.1748L224.297 79.0947C224.326 78.8271 224.34 78.5584 224.34 78.2891C224.34 77.9397 224.269 77.3258 224.145 76.5117C224.022 75.7084 223.853 74.7438 223.671 73.71C223.308 71.6505 222.887 69.3144 222.676 67.5029C221.944 61.2376 220.121 55.7223 218.342 48.5654C212.877 33.4772 205.233 25.0198 195.682 20.4609C189.773 17.6408 179.51 15.7455 167.929 14.5146C156.37 13.2862 143.569 12.7261 132.634 12.5469C128.983 12.487 125.541 12.4692 122.424 12.4834Z" fill="#B8D2E4" stroke="#341D1A"/>
</svg>
