<svg width="105" height="95" viewBox="0 0 105 95" fill="none" xmlns="http://www.w3.org/2000/svg">
<path d="M82.8688 93.9229C82.8688 93.9229 82.0449 93.9228 81.015 94.3348C78.1314 94.7467 72.9822 95.1587 68.8627 94.3348L54.4448 86.9198L51.5612 85.478L50.1194 86.3019L39.4089 93.5109L38.379 94.1288C38.379 94.1288 37.7611 94.1288 37.1432 94.1288C37.1432 94.1288 37.1432 94.1288 36.9372 94.1288C33.6417 94.3348 26.4327 94.9527 23.1372 94.1288C22.7252 94.1288 22.5192 93.5109 22.5192 92.687C22.9312 88.7736 28.4924 78.2691 33.6417 69.8242C37.3491 63.2332 40.8506 57.8779 40.8506 57.8779L41.4686 51.2868L43.1163 31.5136L45.588 2.26568V0.823885C45.588 0.823885 54.6507 -1.02986 60.6239 0.823885C62.6836 1.85374 66.5971 15.6538 70.5106 32.1315C71.5404 36.6629 72.7762 41.6062 73.806 46.3435C74.8359 51.2868 75.8658 56.0241 76.8956 60.7615C80.8091 79.0929 83.4867 93.9229 83.4867 93.9229H82.8688Z" fill="url(#paint0_linear_5_1043)"/>
<path d="M84.1046 65.0869C84.1046 65.0869 89.254 89.5974 83.4868 93.5109C83.2808 93.5109 83.0748 93.7168 82.6629 93.9228C82.045 94.1288 81.4271 94.3347 80.8092 94.3347C78.5435 94.3347 75.4539 93.3049 72.5703 91.8631C65.7733 88.7735 58.7702 83.8302 58.7702 83.8302C58.7702 83.8302 56.9164 85.066 54.2388 86.9198C53.6209 87.3317 53.209 87.5377 52.5911 87.9496C48.2657 90.6273 42.4985 93.5109 38.3791 94.1288C37.9671 94.1288 37.5552 94.1288 37.1432 94.1288C37.1432 94.1288 37.1432 94.1288 36.9373 94.1288C36.1134 94.1288 35.4955 94.1288 34.8775 93.9228C34.6716 93.9228 34.2596 93.7169 34.0537 93.5109C33.4358 93.0989 33.0238 92.481 32.8178 91.8631C30.5521 87.1258 32.2 76.0033 33.4358 69.6182C33.8477 66.9406 34.4656 65.0869 34.4656 65.0869C34.4656 65.0869 24.991 57.4659 19.0178 50.0509C16.1342 46.3435 14.2805 42.842 14.6924 40.3703C15.5163 36.2509 23.1372 33.9852 30.3462 32.7494C35.9074 31.9255 41.0567 31.5135 42.7045 31.5135C43.1164 31.5135 43.3224 31.5135 43.3224 31.5135C43.3224 31.5135 47.4418 17.0956 52.7971 8.03284C55.0627 4.11939 57.7404 1.02982 60.0061 0.823853C60.418 0.823853 60.624 0.823853 61.0359 0.823853C68.8628 3.29551 76.2778 31.3076 76.2778 31.3076C76.2778 31.3076 103.054 32.1315 104.702 40.1643C106.144 47.9912 84.3106 64.8809 84.3106 64.8809L84.1046 65.0869Z" fill="url(#paint1_linear_5_1043)"/>
<path d="M70.9225 65.087C70.9225 65.087 75.6598 85.2721 72.3643 91.8632C71.9523 92.4811 71.5404 93.0991 71.1284 93.511C70.5105 93.9229 69.6866 94.1289 68.6568 94.1289C64.3314 94.1289 57.5343 90.6274 52.3851 87.7438C51.3552 87.1259 50.5313 86.7139 49.7075 86.096C47.4418 84.6542 45.9999 83.6244 45.9999 83.6244C45.9999 83.6244 38.997 88.5677 32.1999 91.6572C30.1402 92.4811 28.2864 93.305 26.4327 93.7169C24.7849 94.1289 23.5491 94.1289 22.3133 93.7169C21.9013 93.7169 21.4894 93.511 21.0775 93.099C15.5163 89.1856 20.2536 65.9109 20.4595 64.675C20.4595 64.675 -1.37341 47.7854 0.0683908 39.9585C1.71616 31.9256 28.4924 31.1017 28.4924 31.1017C28.4924 31.1017 36.7313 0.411987 44.7642 0.411987C52.797 0.411987 49.9134 3.50156 52.1791 7.62098C57.5343 16.8897 61.6538 31.1017 61.6538 31.1017C61.6538 31.1017 64.9493 31.1017 69.4807 31.7196C74.63 32.3375 81.0151 33.3674 85.3405 35.4271C88.0181 36.6629 89.8718 38.1047 90.2837 40.1644C91.3136 45.5197 82.0449 54.9944 75.8658 60.5556C72.9822 63.2332 70.7165 65.087 70.7165 65.087H70.9225Z" fill="url(#paint2_linear_5_1043)"/>
<g style="mix-blend-mode:soft-light">
<path d="M62.0657 31.5135C62.0657 31.5135 72.9822 31.1016 77.7196 31.5135C95.845 32.9553 100.788 36.0449 102.024 38.1046C103.466 40.1643 91.7256 38.1046 90.9017 38.1046C90.0778 38.1046 89.4599 35.221 79.7793 33.7792C69.8927 32.5434 62.0657 31.1016 62.0657 31.1016V31.5135Z" fill="white"/>
</g>
<g style="mix-blend-mode:multiply" opacity="0.3">
<path d="M84.1046 65.0869C81.633 65.9108 74.012 65.0869 72.9822 65.0869C71.9523 65.0869 87.4002 51.4928 90.2838 45.9316C93.3733 40.3704 102.23 40.9883 103.672 42.0182C105.114 43.048 97.9047 52.5227 93.1674 57.26C88.636 61.9973 84.1046 65.2929 84.1046 65.2929V65.0869Z" fill="#B30053"/>
</g>
<g style="mix-blend-mode:soft-light">
<path d="M81.427 43.46C78.9553 44.4898 76.2777 45.5197 73.1881 46.3436C63.9194 49.0212 51.9731 50.669 40.8506 51.2869C33.0237 51.6988 25.1969 51.2869 18.8118 50.257C11.6028 49.0212 5.62958 46.9615 2.54001 43.6659C1.71612 42.8421 1.30419 41.8122 0.686279 40.5764C0.892251 39.3405 1.92211 38.1047 3.36391 37.0749C3.56988 37.0749 3.98181 36.6629 4.18778 36.4569C12.0147 32.1316 28.9043 31.7196 28.9043 31.7196C28.9043 31.7196 37.1432 1.02991 45.176 1.02991C53.2089 1.02991 46.6178 1.23588 47.2358 1.64783C49.0895 2.67768 50.9432 5.14935 52.591 8.03295C57.9463 17.3017 62.0657 31.5137 62.0657 31.5137C62.0657 31.5137 65.3612 31.5137 69.8926 32.1316C75.0419 32.7495 81.427 33.7793 85.7524 35.8391C86.3703 39.1346 85.3404 41.8122 81.427 43.6659V43.46Z" fill="white"/>
</g>
<g style="mix-blend-mode:multiply" opacity="0.2">
<path d="M4.18784 46.7555C1.09828 47.9913 9.13117 55.4063 15.7222 59.3198C22.3133 63.2332 74.424 51.4929 79.1614 52.5227C83.8987 53.5526 91.5196 44.9018 90.2838 41.1943C88.842 37.4868 86.5763 37.0749 86.5763 37.6928C86.5763 38.3107 83.6927 43.666 77.3076 45.3137C71.1285 46.9615 22.1073 50.463 16.5461 51.0809C10.9849 51.4929 4.59977 46.3436 3.98186 46.5496L4.18784 46.7555Z" fill="#DA0553"/>
</g>
<g style="mix-blend-mode:soft-light">
<path d="M22.7252 93.099C17.9879 92.0691 18.6058 79.2989 21.4894 75.5914C24.579 72.0899 61.8598 72.2959 68.8628 74.5616C75.8658 76.8273 72.7763 91.6572 70.3046 93.099C67.833 94.5408 47.0298 82.1825 45.3821 82.5945C43.7343 83.0064 31.582 95.1587 22.5193 93.099H22.7252Z" fill="white"/>
</g>
<path d="M64.5373 59.7316L61.6538 62.2032L62.4776 65.4988C64.3314 72.7078 65.3613 80.1227 65.1553 84.2422C65.1553 84.6541 65.1553 85.066 65.1553 85.478C61.6538 84.2421 55.4746 80.9466 50.3253 77.2391L47.6477 75.3854L46.2059 74.3555L42.0865 77.4451C38.173 80.3287 33.6417 83.0063 30.3462 84.4481C29.3163 84.8601 28.2864 85.272 27.4625 85.684C26.8446 81.9765 27.6685 73.7376 29.5222 65.9107L30.3462 62.6152L27.2566 60.1435C20.0476 54.3763 13.0446 46.9614 11.6028 43.6658C14.2804 42.0181 23.1372 40.3703 30.9641 40.1643H36.1133L37.3492 35.427C39.6149 27.6001 42.9104 19.5672 45.382 15.2418C46 16.0657 46.4119 17.0956 47.0298 18.3314C49.2955 22.8628 51.9731 29.2478 53.8269 35.427L55.2686 39.9584H60.4179C68.2448 40.3703 77.1016 42.0181 79.7793 43.6658C78.3375 46.9614 71.5404 54.3763 64.5373 60.1435V59.7316Z" fill="url(#paint3_linear_5_1043)"/>
<path d="M79.7793 43.254C78.5435 46.3435 72.5703 52.7286 66.3912 58.2899C65.7732 58.7018 65.1553 59.3197 64.5374 59.7317L61.6538 62.2033L62.4777 65.4989C64.3314 72.7079 65.3613 80.1228 65.1553 84.2423C61.6538 82.5945 57.1224 79.9168 53.209 77.2392L49.0895 74.1496H46.2059L42.0865 77.2392C38.1731 80.1228 33.6417 82.8005 30.3462 84.2423C30.3462 83.6243 30.3462 83.2124 30.3462 82.5945C30.3462 81.9766 30.3462 81.1527 30.3462 80.3288C30.3462 76.8273 31.1701 72.2959 31.9939 67.9705C31.9939 67.1466 32.4059 66.5287 32.4059 65.7048L33.2298 62.4093L30.1402 59.9376C22.9312 54.1705 15.9282 46.7555 14.4864 43.46C17.164 41.8122 26.0208 40.1644 33.8477 39.9584H38.9969L40.2328 35.2211C42.0865 29.042 44.5582 22.6569 46.8239 18.1255C49.0896 22.6569 51.7672 29.042 53.6209 35.2211L55.0627 39.7525H60.212C68.0389 40.1644 76.8957 41.8122 79.5733 43.46L79.7793 43.254Z" fill="url(#paint4_linear_5_1043)"/>
<path d="M45.9999 74.1497C45.9999 74.1497 48.8836 74.1497 49.9134 74.7676C50.9433 75.5915 58.3582 80.5348 58.3582 81.3587C58.3582 82.1825 50.7373 77.4452 45.9999 74.1497Z" fill="#FFE016"/>
<g style="mix-blend-mode:soft-light">
<path d="M27.2566 85.2721C26.2268 84.8602 28.2865 78.0631 29.1103 77.4452C29.9342 76.8273 29.7283 83.6243 29.9342 84.0363C29.9342 84.0363 28.0805 85.2721 27.0506 85.2721H27.2566Z" fill="white"/>
</g>
<g style="mix-blend-mode:multiply" opacity="0.5">
<path d="M30.1402 62.2034H33.2298C33.2298 62.2034 30.1402 71.2661 29.7283 73.7378C29.3163 76.2094 27.8746 71.0601 30.3462 62.2034H30.1402Z" fill="#D42F55"/>
</g>
<g style="mix-blend-mode:multiply" opacity="0.5">
<path d="M13.2505 46.1375C11.3968 42.636 39.4089 43.8718 39.4089 43.8718C39.4089 43.8718 45.1761 25.1284 49.2955 23.0687C49.2955 23.0687 45.794 14.8299 45.1761 14.6239C44.5581 14.6239 35.9073 39.3404 35.9073 39.3404C35.9073 39.3404 23.3431 38.9285 11.3968 43.0479L13.2505 45.9315V46.1375Z" fill="#D42F55"/>
</g>
<g style="mix-blend-mode:multiply" opacity="0.5">
<path d="M55.2686 39.7524C55.2686 39.7524 76.4837 43.4599 78.3374 45.3137L79.7792 43.4599C79.7792 43.4599 73.1881 40.1644 55.2686 39.7524Z" fill="#D42F55"/>
</g>
<g style="mix-blend-mode:multiply" opacity="0.3">
<path d="M52.3851 3.0896C48.4716 3.0896 54.2388 9.88665 56.9165 16.4777C59.5941 22.6569 72.7762 22.8628 72.7762 22.8628C72.7762 22.8628 67.215 6.59112 63.7135 4.73738C60.212 2.67766 52.3851 3.29558 52.3851 3.29558V3.0896Z" fill="#B30053"/>
</g>
<g style="mix-blend-mode:multiply" opacity="0.3">
<path d="M71.1284 94.5408C70.3045 93.9229 72.9822 94.3348 74.012 89.8034C75.0419 85.2721 84.9285 85.684 85.7524 86.3019C86.7823 86.9199 85.1345 92.4811 83.6927 93.5109C82.2509 94.5408 71.1284 94.5408 71.1284 94.5408Z" fill="#B30053"/>
</g>
<g style="mix-blend-mode:soft-light">
<path d="M74.8359 85.8899C73.806 85.478 73.806 74.9735 73.806 72.9138C73.806 70.854 84.5166 71.6779 84.9285 72.9138C85.5464 74.1496 85.9583 84.6541 85.3404 85.272C84.7225 85.8899 75.4539 86.0959 74.63 85.8899H74.8359Z" fill="white"/>
</g>
<g style="mix-blend-mode:soft-light" opacity="0.5">
<path d="M39.8208 93.3049C42.2925 92.8929 47.4418 90.6272 47.6477 89.8034C47.6477 89.1855 41.8806 88.5675 40.6447 88.3616C39.2029 88.3616 31.17 92.8929 30.5521 93.3049C29.9342 93.7168 39.8208 93.3049 39.8208 93.3049Z" fill="white"/>
</g>
<g style="mix-blend-mode:multiply" opacity="0.5">
<path d="M46.2059 84.2422C45.1761 84.6541 41.0566 87.1258 40.8506 87.7437C40.8506 88.3616 47.0298 89.1855 47.8537 89.3915C48.6776 89.3915 52.385 87.9496 52.385 87.9496C52.385 87.9496 46.4119 84.2422 46.2059 84.2422Z" fill="#D42F55"/>
</g>
<g style="mix-blend-mode:multiply" opacity="0.5">
<path d="M91.7256 44.6958C90.9017 45.5197 86.9883 50.257 86.9883 51.4928C86.9883 52.7287 98.3167 51.4928 98.9346 50.463C99.5525 49.6391 104.702 42.8421 103.466 42.0182C102.436 41.1943 93.5793 42.4301 91.5196 44.6958H91.7256Z" fill="#D42F55"/>
</g>
<path d="M62.0657 31.5135C62.0657 31.5135 85.1345 33.7792 88.43 38.3106C93.1674 45.3136 78.1315 59.1137 78.1315 59.1137C78.1315 59.1137 93.1674 45.7256 91.1077 39.1345C89.048 32.3374 62.2717 31.5135 62.2717 31.5135H62.0657Z" fill="#FFE016"/>
<path d="M88.842 36.6629C86.9882 35.839 89.8718 40.1644 89.4599 43.254C89.0479 46.3435 91.3136 42.4301 91.3136 40.1644C91.3136 38.1047 89.048 36.4569 89.048 36.4569L88.842 36.6629Z" fill="white"/>
<g style="mix-blend-mode:soft-light">
<path d="M48.6776 2.67758C44.1462 1.02981 46.8239 17.0956 51.7672 28.8359C56.2985 39.9584 61.0359 35.633 62.0657 32.7494C63.0956 29.8658 52.5911 5.76716 48.8836 2.88357L48.6776 2.67758Z" fill="white"/>
</g>
<path d="M53.4149 12.9761C50.1194 12.5642 51.9731 22.6567 54.0329 26.1583C56.0926 29.6598 58.9762 27.3941 59.1821 24.3045C59.1821 21.215 54.6507 12.9761 53.4149 12.9761Z" fill="white"/>
<g style="mix-blend-mode:soft-light">
<path d="M48.0597 1.0299C46.6179 1.44184 52.1791 2.4717 56.7105 3.08961C61.0359 3.50155 62.0657 3.70752 62.0657 2.47169C62.0657 1.44184 56.0925 -1.44176 48.0597 1.0299Z" fill="white"/>
</g>
<g style="mix-blend-mode:soft-light">
<path d="M71.1284 94.1288C70.7165 93.7169 82.2509 92.2751 83.2807 92.4811C84.5166 92.6871 81.839 93.9229 81.839 93.9229C81.839 93.9229 74.218 95.1587 71.1284 94.1288Z" fill="white"/>
</g>
<g style="mix-blend-mode:soft-light" opacity="0.5">
<path d="M62.4776 65.4988C64.3314 72.7078 65.3613 80.1227 65.1553 84.2422C61.6538 82.5944 57.1224 79.9168 53.2089 77.2391L49.0895 74.1496H46.2059L42.0865 77.2391C38.173 80.1227 33.6417 82.8004 30.3462 84.2422C30.3462 83.6243 30.3462 83.2123 30.3462 82.5944L31.376 81.5645C30.9641 81.5645 30.7581 80.9466 30.5521 80.1227C29.9342 77.8571 30.1402 72.7078 32.1999 67.7645C33.8477 63.851 36.7312 60.1435 40.8507 57.6719C53.003 50.6688 66.5971 58.2898 66.5971 58.2898C65.9791 58.7017 65.3612 59.3196 64.7433 59.7316L61.8597 62.2032L62.6836 65.4988H62.4776Z" fill="white"/>
</g>
<path d="M20.0476 90.0095C19.6356 86.9199 20.6655 85.0662 21.9013 85.0662C22.9312 85.0662 24.3729 92.0692 23.3431 92.8931C22.3132 93.717 20.2535 90.8333 20.0476 90.0095Z" fill="white"/>
<g style="mix-blend-mode:multiply" opacity="0.8">
<path d="M52.3851 87.9496C48.0597 90.6272 42.2925 93.5108 38.1731 94.1287C37.7611 94.1287 37.3492 94.1287 36.9372 94.1287C36.9372 94.1287 36.9372 94.1287 36.7313 94.1287C33.4357 94.3347 26.2268 94.9526 22.9312 94.1287C22.5193 94.1287 22.1073 93.9228 21.6954 93.5108C16.1342 89.5974 20.8715 66.3226 21.0775 65.0868C21.0775 66.1166 18.1939 86.0959 20.6655 90.8332C21.0775 91.4511 21.4894 92.069 22.3133 92.481C23.5491 93.0989 25.1969 93.5108 27.0506 93.7168C29.5223 93.9227 32.4059 93.9227 34.8775 93.7168C36.5253 93.7168 38.1731 93.3048 39.4089 93.0989C40.6447 93.0989 41.4686 92.6869 42.0865 92.481C45.1761 91.4511 51.7672 87.9496 52.5911 87.5376L52.3851 87.9496Z" fill="#D42F55"/>
</g>
<g style="mix-blend-mode:multiply" opacity="0.8">
<path d="M60.8299 0.823865C60.8299 0.823865 60.418 0.823865 60.006 0.823865C60.006 0.823865 60.006 0.823865 59.8 0.823865C57.5344 0.617894 51.9731 0.205926 47.2358 1.44175C46.4119 1.44175 45.794 1.85371 44.9701 2.26566C44.7641 2.26566 44.3522 2.26565 44.1462 2.67759C32.6118 10.0926 30.1402 32.9554 30.1402 32.9554C30.1402 32.9554 9.54308 34.3971 4.3938 36.4569C12.2207 32.1315 29.1103 31.7195 29.1103 31.7195C29.1103 31.7195 37.3492 1.02982 45.3821 1.02982C45.3821 1.02982 54.4448 -0.823923 60.212 1.02982C60.6239 1.02982 60.8299 1.02982 61.2419 1.02982L60.8299 0.823865Z" fill="#D42F55"/>
</g>
<path d="M84.9285 52.5226C84.9285 49.639 78.1314 55.4063 77.7195 56.4361C77.3076 57.466 76.8956 59.1137 77.3075 59.5257C77.7195 59.9376 84.5165 58.4958 85.1344 52.5226H84.9285Z" fill="#DC2C00"/>
<g style="mix-blend-mode:multiply" opacity="0.5">
<path d="M84.3106 51.9048C82.4569 51.9048 80.1912 53.7585 79.9852 55.8183C79.7793 57.878 81.839 57.878 83.6928 55.8183C85.5465 53.7585 84.9286 52.1108 84.3106 51.9048Z" fill="#D42F55"/>
</g>
<path d="M77.7195 56.436C77.7195 56.436 77.7195 58.0838 78.3374 58.4957C79.3673 59.1137 81.427 58.4957 81.427 58.4957C81.427 58.4957 78.9553 60.3495 77.1016 60.3495C75.2478 60.3495 77.7195 56.642 77.7195 56.642V56.436Z" fill="#FFBA00"/>
<path d="M76.6897 59.9377C76.0718 59.1138 79.5733 59.1138 79.9852 59.1138C80.1912 59.1138 77.3076 60.7616 76.6897 59.9377Z" fill="white"/>
<path d="M35.0835 90.6274C34.6715 90.6274 35.4954 88.5677 36.7312 88.1557C37.7611 87.7438 39.4089 87.7438 39.2029 88.5677C39.2029 89.3915 37.3492 90.8333 35.0835 90.6274Z" fill="#DC2C00"/>
<path d="M35.9073 88.5676C35.0834 90.4214 36.3193 90.2154 37.5551 90.0094C37.5551 90.0094 36.1133 90.8333 34.2596 90.8333C34.2596 90.8333 34.2596 89.5975 35.9073 88.5676Z" fill="#FFBA00"/>
<path d="M34.4656 90.8334C34.4656 90.8334 35.0834 90.2155 35.7014 90.2155C36.3193 90.2155 36.7312 90.4214 36.7312 90.4214C36.7312 90.4214 35.4954 91.0393 34.4656 90.8334Z" fill="white"/>
<g style="mix-blend-mode:multiply" opacity="0.5">
<path d="M37.3492 87.9497C35.7014 88.7736 36.1134 90.0094 37.3492 90.0094C38.791 90.0094 39.2029 88.5676 38.791 88.1557C38.379 87.9497 37.1432 87.9497 37.1432 87.9497H37.3492Z" fill="#D42F55"/>
</g>
<g style="mix-blend-mode:soft-light">
<path d="M23.961 54.1704C20.2535 52.3167 26.0207 58.7018 27.6685 60.1435C29.3163 61.3794 30.1402 62.2033 30.1402 62.2033H33.2297C33.2297 62.2033 25.4028 54.9943 23.961 54.3764V54.1704Z" fill="white"/>
</g>
<path d="M30.1402 62.2033C29.3163 61.5854 28.9044 59.7317 29.7283 59.7317C30.5521 59.7317 33.2298 62.2033 33.2298 62.2033H30.1402Z" fill="white"/>
<path d="M45.9999 74.1496C45.9999 74.1496 49.0895 74.1496 49.9134 74.7675C50.9433 75.3854 52.797 77.4451 52.797 77.4451C52.797 77.4451 49.0895 76.4153 45.794 73.9436L45.9999 74.1496Z" fill="#FFE016"/>
<g style="mix-blend-mode:multiply" opacity="0.8">
<path d="M50.7373 86.7139C50.7373 86.7139 62.4776 92.0692 68.6568 93.511C74.6299 94.9528 82.2509 93.9229 82.2509 93.9229C82.2509 93.9229 74.424 95.3647 67.6269 93.9229C60.8299 92.6871 50.7373 86.5079 50.7373 86.5079V86.7139Z" fill="#D42F55"/>
</g>
<path d="M0.892273 40.5763C1.51019 43.8719 5.83557 39.5465 6.86543 37.6927C7.89528 35.839 1.09824 35.839 0.892273 40.5763Z" fill="white"/>
<path d="M61.6537 62.2032C61.6537 62.2032 76.2777 52.1106 79.7792 43.4598C79.7792 43.4598 72.7762 54.7882 61.6537 62.2032Z" fill="#FFE016"/>
<g style="mix-blend-mode:multiply" opacity="0.3">
<path d="M34.2596 59.7316C32.8178 59.7316 26.2268 54.1703 25.1969 51.4927C24.1671 48.8151 33.4357 51.4927 47.4418 50.6688C61.6538 49.845 77.5135 43.2539 77.1016 44.2837C76.6897 45.3136 68.0389 54.9942 65.9792 55.6121C63.7135 56.0241 59.1821 52.9345 49.0895 53.1405C39.2029 53.3465 36.1134 59.5256 34.0536 59.7316H34.2596Z" fill="#B30053"/>
</g>
<defs>
<linearGradient id="paint0_linear_5_1043" x1="61.2418" y1="101.75" x2="27.0506" y2="7.20898" gradientUnits="userSpaceOnUse">
<stop stop-color="#FF5900"/>
<stop offset="0.2" stop-color="#FE6800"/>
<stop offset="0.7" stop-color="#FA9300"/>
<stop offset="0.8" stop-color="#F66A00"/>
<stop offset="1" stop-color="#F63F00"/>
</linearGradient>
<linearGradient id="paint1_linear_5_1043" x1="78.9554" y1="95.3646" x2="46.4119" y2="5.56119" gradientUnits="userSpaceOnUse">
<stop stop-color="#FF5900"/>
<stop offset="0.2" stop-color="#FE6800"/>
<stop offset="0.7" stop-color="#FA9300"/>
<stop offset="0.8" stop-color="#F66A00"/>
<stop offset="1" stop-color="#F63F00"/>
</linearGradient>
<linearGradient id="paint2_linear_5_1043" x1="65.3612" y1="95.7767" x2="32.4058" y2="5.14934" gradientUnits="userSpaceOnUse">
<stop stop-color="#FFEA34"/>
<stop offset="0.6" stop-color="#FF8100"/>
<stop offset="0.7" stop-color="#FFA400"/>
<stop offset="1" stop-color="#FFBA00"/>
</linearGradient>
<linearGradient id="paint3_linear_5_1043" x1="61.4478" y1="86.7138" x2="36.5253" y2="18.1254" gradientUnits="userSpaceOnUse">
<stop stop-color="#FFBA00"/>
<stop offset="0.2" stop-color="#FE6800"/>
<stop offset="1" stop-color="#D41B00"/>
</linearGradient>
<linearGradient id="paint4_linear_5_1043" x1="62.4777" y1="85.0661" x2="38.997" y2="20.8031" gradientUnits="userSpaceOnUse">
<stop stop-color="#FF9000"/>
<stop offset="1" stop-color="#E13E00"/>
</linearGradient>
</defs>
</svg>
