<svg width="1512" height="982" viewBox="0 0 1512 982" fill="none" xmlns="http://www.w3.org/2000/svg">
<path opacity="0.3" d="M658.99 453.97L-124.629 687.265L-162.008 484.942L602.862 428.931L-176.368 -2.21403L-51.7706 -242.509L635.139 429.406L74.5274 -415.522L272.103 -496.016L659.583 413.624L417.665 -515.399L616.981 -531.3L684.107 392.462L751.467 -529.322L909.884 -508.161L716.384 392.936L1046.47 -465.798L1167.03 -431.742L737.902 393.253L1305.83 -357.062L1436.2 -258.294L759.103 415.087L1552.21 -97.8605L1625.55 220.674L774.648 455.67L1620.41 570.338L1438.02 1081.5L758.233 474.261L1191.72 1365.75L973.136 1410.96L736.715 473.944L784.262 1448.53L644.673 1427.65L715.198 473.628L451.013 1424.8L362.766 1388.53L699.059 473.391L246.475 1246.92L187.973 1200.33L683.198 454.325L8.15701 987.841L-41.6821 901.019L658.99 453.97Z" fill="white"/>
</svg>
